<svg width="30" height="24" viewBox="0 0 30 24" fill="none" xmlns="http://www.w3.org/2000/svg">
<path d="M10.8188 11.5078C9.52504 7.98281 10.8938 4.13437 13.8985 2.15625C13.6875 2.05312 13.4719 1.95937 13.2469 1.875C10.0313 0.707811 6.46879 2.3625 5.28754 5.57812L4.60316 7.45312C3.93754 9.27187 2.70004 10.8281 1.07816 11.8922L0.698476 12.1406C0.220351 12.4547 -0.0374618 13.0078 0.0281632 13.5703C0.0937882 14.1328 0.468788 14.6109 1.00316 14.8031L11.8079 18.7359L11.8594 18.5531C12.3 17.0297 12.2391 15.4031 11.6954 13.9078L10.8188 11.5078ZM14.3438 10.2281C13.5469 8.05312 14.6672 5.64375 16.8422 4.85156C19.0172 4.05937 21.4313 5.17969 22.2282 7.35469L23.1094 9.75469C23.85 11.775 25.1532 13.5422 26.8641 14.8406L15.6422 18.9234C16.1063 16.8328 15.9657 14.6484 15.2204 12.6234L14.3438 10.2281ZM13.3078 18.9656L13.0922 19.7063C12.9375 20.25 13.0969 20.8313 13.5141 21.2156C13.9313 21.6 14.5219 21.7219 15.0516 21.5297L28.9969 16.4578C29.5266 16.2656 29.9063 15.7922 29.9719 15.2297C30.0375 14.6672 29.7844 14.1187 29.3157 13.8047L28.6735 13.3734C27.0891 12.3094 25.8797 10.7766 25.2235 8.98594L24.3422 6.58594C23.1188 3.24375 19.411 1.52344 16.0688 2.7375C12.7266 3.95156 11.0063 7.65 12.2297 10.9969L13.111 13.3969C13.7672 15.1875 13.8375 17.1375 13.3125 18.9703L13.3078 18.9656ZM22.5375 22.5C24.2063 22.5 25.561 21.15 25.561 19.4859C25.561 19.425 25.561 19.3641 25.5563 19.3031L20.1141 21.2859C20.6672 22.0219 21.5485 22.5 22.5375 22.5ZM4.42035 17.6297C4.40629 17.7469 4.4016 17.8641 4.4016 17.9813C4.4016 19.6453 5.75629 20.9953 7.42504 20.9953C8.47035 20.9953 9.3891 20.4656 9.93285 19.6641L4.42035 17.6297Z" fill="#616267"/>
</svg>
