<svg width="455" height="327" viewBox="0 0 455 327" fill="none" xmlns="http://www.w3.org/2000/svg">
<g filter="url(#filter0_d_2022_272)">
<rect x="36" y="36.8562" width="383" height="254" rx="20" fill="#343A40"/>
<rect x="36.5" y="37.3562" width="382" height="253" rx="19.5" stroke="#0064B2"/>
<circle cx="73.3492" cy="74.2054" r="13.3492" fill="#8F35C3"/>
<circle cx="81.1747" cy="66.38" r="5.52381" fill="#35C38F"/>
<circle cx="65.0635" cy="84.7927" r="5.06349" fill="#C38F35"/>
<mask id="path-6-outside-1_2022_272" maskUnits="userSpaceOnUse" x="94.6982" y="64.8562" width="71" height="21" fill="black">
<rect fill="white" x="94.6982" y="64.8562" width="71" height="21"/>
<path d="M107.423 66.4017H110.585V77.8051C110.585 79.0551 110.289 80.1545 109.698 81.1034C109.113 82.0522 108.289 82.7937 107.227 83.3278C106.164 83.8562 104.923 84.1204 103.502 84.1204C102.076 84.1204 100.832 83.8562 99.7693 83.3278C98.7068 82.7937 97.8829 82.0522 97.2977 81.1034C96.7124 80.1545 96.4198 79.0551 96.4198 77.8051V66.4017H99.5818V77.5409C99.5818 78.2681 99.7409 78.9159 100.059 79.484C100.383 80.0522 100.837 80.4982 101.423 80.8221C102.008 81.1403 102.701 81.2994 103.502 81.2994C104.303 81.2994 104.997 81.1403 105.582 80.8221C106.173 80.4982 106.627 80.0522 106.945 79.484C107.264 78.9159 107.423 78.2681 107.423 77.5409V66.4017ZM113.885 83.8562V70.7653H116.877V72.9471H117.013C117.252 72.1914 117.661 71.609 118.24 71.2C118.825 70.7852 119.493 70.5778 120.243 70.5778C120.413 70.5778 120.604 70.5863 120.814 70.6034C121.03 70.6147 121.209 70.6346 121.351 70.663V73.5011C121.22 73.4556 121.013 73.4159 120.729 73.3818C120.45 73.342 120.18 73.3221 119.919 73.3221C119.357 73.3221 118.851 73.4443 118.402 73.6886C117.959 73.9272 117.609 74.2596 117.354 74.6857C117.098 75.1119 116.97 75.6034 116.97 76.1602V83.8562H113.885ZM123.537 83.8562V66.4017H126.622V72.9301H126.75C126.909 72.6119 127.134 72.2738 127.423 71.9159C127.713 71.5522 128.105 71.2426 128.6 70.9869C129.094 70.7255 129.725 70.5948 130.492 70.5948C131.503 70.5948 132.415 70.8534 133.227 71.3704C134.046 71.8818 134.693 72.6403 135.171 73.646C135.653 74.646 135.895 75.8732 135.895 77.3278C135.895 78.7653 135.659 79.9869 135.188 80.9926C134.716 81.9982 134.074 82.7653 133.261 83.2937C132.449 83.8221 131.528 84.0863 130.5 84.0863C129.75 84.0863 129.128 83.9613 128.634 83.7113C128.139 83.4613 127.742 83.1602 127.44 82.8079C127.145 82.45 126.915 82.1119 126.75 81.7937H126.571V83.8562H123.537ZM126.563 77.3107C126.563 78.1573 126.682 78.8988 126.921 79.5352C127.165 80.1715 127.514 80.6687 127.969 81.0267C128.429 81.3789 128.986 81.5551 129.639 81.5551C130.321 81.5551 130.892 81.3732 131.352 81.0096C131.813 80.6403 132.159 80.1375 132.392 79.5011C132.631 78.859 132.75 78.1289 132.75 77.3107C132.75 76.4982 132.634 75.7767 132.401 75.146C132.168 74.5153 131.821 74.021 131.361 73.663C130.901 73.3051 130.327 73.1261 129.639 73.1261C128.98 73.1261 128.421 73.2994 127.96 73.646C127.5 73.9926 127.151 74.4784 126.912 75.1034C126.679 75.7284 126.563 76.4642 126.563 77.3107ZM142.285 84.1204C141.455 84.1204 140.708 83.9727 140.043 83.6772C139.384 83.3761 138.862 82.9329 138.475 82.3477C138.095 81.7625 137.904 81.0409 137.904 80.1829C137.904 79.4443 138.041 78.8335 138.313 78.3505C138.586 77.8676 138.958 77.4812 139.43 77.1914C139.901 76.9017 140.433 76.6829 141.024 76.5352C141.62 76.3818 142.237 76.271 142.873 76.2028C143.64 76.1232 144.262 76.0522 144.739 75.9897C145.217 75.9215 145.563 75.8193 145.779 75.6829C146.001 75.5409 146.112 75.3221 146.112 75.0267V74.9755C146.112 74.3335 145.921 73.8363 145.541 73.484C145.16 73.1318 144.612 72.9556 143.896 72.9556C143.14 72.9556 142.541 73.1204 142.097 73.45C141.66 73.7795 141.364 74.1687 141.211 74.6176L138.33 74.2085C138.558 73.413 138.933 72.7482 139.455 72.2142C139.978 71.6744 140.617 71.271 141.373 71.0039C142.129 70.7312 142.964 70.5948 143.879 70.5948C144.509 70.5948 145.137 70.6687 145.762 70.8164C146.387 70.9642 146.958 71.2085 147.475 71.5494C147.992 71.8846 148.407 72.342 148.72 72.9215C149.038 73.5011 149.197 74.2255 149.197 75.0948V83.8562H146.231V82.0579H146.129C145.941 82.4215 145.677 82.7625 145.336 83.0806C145.001 83.3931 144.578 83.646 144.066 83.8392C143.56 84.0267 142.967 84.1204 142.285 84.1204ZM143.086 81.8534C143.705 81.8534 144.242 81.7312 144.697 81.4869C145.151 81.2369 145.501 80.9073 145.745 80.4982C145.995 80.0892 146.12 79.6431 146.12 79.1602V77.6176C146.024 77.6971 145.859 77.771 145.626 77.8392C145.399 77.9073 145.143 77.967 144.859 78.0181C144.575 78.0693 144.293 78.1147 144.015 78.1545C143.737 78.1943 143.495 78.2284 143.291 78.2568C142.83 78.3193 142.418 78.4215 142.055 78.5636C141.691 78.7056 141.404 78.9045 141.194 79.1602C140.984 79.4102 140.879 79.734 140.879 80.1318C140.879 80.7 141.086 81.1289 141.501 81.4187C141.916 81.7085 142.444 81.8534 143.086 81.8534ZM155.384 76.1857V83.8562H152.299V70.7653H155.248V72.9897H155.401C155.703 72.2568 156.183 71.6744 156.842 71.2426C157.506 70.8107 158.328 70.5948 159.305 70.5948C160.208 70.5948 160.995 70.788 161.666 71.1744C162.342 71.5607 162.864 72.1204 163.234 72.8534C163.609 73.5863 163.793 74.4755 163.788 75.521V83.8562H160.703V75.9982C160.703 75.1232 160.475 74.4386 160.021 73.9443C159.572 73.45 158.95 73.2028 158.154 73.2028C157.614 73.2028 157.134 73.3221 156.714 73.5607C156.299 73.7937 155.972 74.1318 155.734 74.575C155.501 75.0181 155.384 75.5551 155.384 76.1857Z"/>
</mask>
<path d="M107.423 66.4017V65.4017H106.423V66.4017H107.423ZM110.585 66.4017H111.585V65.4017H110.585V66.4017ZM109.698 81.1034L108.849 80.5747L108.847 80.5784L109.698 81.1034ZM107.227 83.3278L107.672 84.2232L107.676 84.2213L107.227 83.3278ZM99.7693 83.3278L99.3201 84.2213L99.324 84.2232L99.7693 83.3278ZM97.2977 81.1034L98.1488 80.5784L97.2977 81.1034ZM96.4198 66.4017V65.4017H95.4198V66.4017H96.4198ZM99.5818 66.4017H100.582V65.4017H99.5818V66.4017ZM100.059 79.484L99.1865 79.9727L99.1903 79.9792L100.059 79.484ZM101.423 80.8221L100.938 81.6971L100.945 81.7007L101.423 80.8221ZM105.582 80.8221L106.059 81.7007L106.062 81.699L105.582 80.8221ZM106.945 79.484L107.818 79.9726L106.945 79.484ZM107.423 67.4017H110.585V65.4017H107.423V67.4017ZM109.585 66.4017V77.8051H111.585V66.4017H109.585ZM109.585 77.8051C109.585 78.8909 109.33 79.8028 108.849 80.5747L110.547 81.632C111.248 80.5062 111.585 79.2192 111.585 77.8051H109.585ZM108.847 80.5784C108.366 81.3589 107.686 81.9777 106.778 82.4343L107.676 84.2213C108.892 83.6097 109.86 82.7455 110.549 81.6283L108.847 80.5784ZM106.781 82.4324C105.882 82.8797 104.798 83.1204 103.502 83.1204V85.1204C105.047 85.1204 106.446 84.8327 107.672 84.2232L106.781 82.4324ZM103.502 83.1204C102.2 83.1204 101.114 82.8795 100.215 82.4324L99.324 84.2232C100.55 84.8329 101.952 85.1204 103.502 85.1204V83.1204ZM100.218 82.4343C99.3099 81.9777 98.6302 81.3589 98.1488 80.5784L96.4465 81.6283C97.1356 82.7455 98.1036 83.6097 99.3201 84.2213L100.218 82.4343ZM98.1488 80.5784C97.6724 79.8059 97.4198 78.8928 97.4198 77.8051H95.4198C95.4198 79.2174 95.7525 80.5031 96.4465 81.6283L98.1488 80.5784ZM97.4198 77.8051V66.4017H95.4198V77.8051H97.4198ZM96.4198 67.4017H99.5818V65.4017H96.4198V67.4017ZM98.5818 66.4017V77.5409H100.582V66.4017H98.5818ZM98.5818 77.5409C98.5818 78.4188 98.7753 79.2384 99.1865 79.9726L100.932 78.9954C100.706 78.5934 100.582 78.1174 100.582 77.5409H98.5818ZM99.1903 79.9792C99.6072 80.7107 100.196 81.2864 100.938 81.6971L101.907 79.9472C101.478 79.71 101.159 79.3938 100.928 78.9888L99.1903 79.9792ZM100.945 81.7007C101.704 82.1132 102.568 82.2994 103.502 82.2994V80.2994C102.834 80.2994 102.312 80.1674 101.9 79.9436L100.945 81.7007ZM103.502 82.2994C104.437 82.2994 105.301 82.1132 106.059 81.7007L105.104 79.9436C104.692 80.1674 104.17 80.2994 103.502 80.2994V82.2994ZM106.062 81.699C106.812 81.2883 107.405 80.7103 107.818 79.9726L106.073 78.9954C105.85 79.3941 105.534 79.7082 105.101 79.9452L106.062 81.699ZM107.818 79.9726C108.229 79.2384 108.423 78.4188 108.423 77.5409H106.423C106.423 78.1174 106.298 78.5934 106.073 78.9954L107.818 79.9726ZM108.423 77.5409V66.4017H106.423V77.5409H108.423ZM113.885 83.8562H112.885V84.8562H113.885V83.8562ZM113.885 70.7653V69.7653H112.885V70.7653H113.885ZM116.877 70.7653H117.877V69.7653H116.877V70.7653ZM116.877 72.9471H115.877V73.9471H116.877V72.9471ZM117.013 72.9471V73.9471H117.746L117.966 73.2482L117.013 72.9471ZM118.24 71.2L118.817 72.0169L118.818 72.0158L118.24 71.2ZM120.814 70.6034L120.733 71.6001L120.747 71.6012L120.761 71.602L120.814 70.6034ZM121.351 70.663H122.351V69.8432L121.547 69.6824L121.351 70.663ZM121.351 73.5011L121.022 74.4456L122.351 74.9077V73.5011H121.351ZM120.729 73.3818L120.587 74.3717L120.598 74.3733L120.61 74.3746L120.729 73.3818ZM118.402 73.6886L118.876 74.5691L118.88 74.5669L118.402 73.6886ZM116.97 83.8562V84.8562H117.97V83.8562H116.97ZM114.885 83.8562V70.7653H112.885V83.8562H114.885ZM113.885 71.7653H116.877V69.7653H113.885V71.7653ZM115.877 70.7653V72.9471H117.877V70.7653H115.877ZM116.877 73.9471H117.013V71.9471H116.877V73.9471ZM117.966 73.2482C118.147 72.6754 118.437 72.2852 118.817 72.0169L117.663 70.383C116.884 70.9329 116.356 71.7075 116.059 72.646L117.966 73.2482ZM118.818 72.0158C119.227 71.7265 119.69 71.5778 120.243 71.5778V69.5778C119.296 69.5778 118.424 69.8438 117.662 70.3841L118.818 72.0158ZM120.243 71.5778C120.381 71.5778 120.544 71.5847 120.733 71.6001L120.895 69.6066C120.664 69.5879 120.446 69.5778 120.243 69.5778V71.5778ZM120.761 71.602C120.95 71.6119 121.077 71.628 121.155 71.6436L121.547 69.6824C121.341 69.6412 121.11 69.6175 120.867 69.6047L120.761 71.602ZM120.351 70.663V73.5011H122.351V70.663H120.351ZM121.679 72.5566C121.442 72.4739 121.145 72.4245 120.848 72.3889L120.61 74.3746C120.736 74.3898 120.835 74.405 120.909 74.4193C120.946 74.4263 120.974 74.4326 120.994 74.4377C121.015 74.443 121.023 74.4459 121.022 74.4456L121.679 72.5566ZM120.87 72.3918C120.548 72.3459 120.231 72.3221 119.919 72.3221V74.3221C120.13 74.3221 120.352 74.3381 120.587 74.3717L120.87 72.3918ZM119.919 72.3221C119.207 72.3221 118.534 72.4783 117.924 72.8103L118.88 74.5669C119.168 74.4103 119.506 74.3221 119.919 74.3221V72.3221ZM117.928 72.8081C117.329 73.1309 116.846 73.5888 116.496 74.1713L118.211 75.2002C118.373 74.9304 118.589 74.7236 118.876 74.5691L117.928 72.8081ZM116.496 74.1713C116.136 74.7709 115.97 75.4445 115.97 76.1602H117.97C117.97 75.7622 118.06 75.4528 118.211 75.2002L116.496 74.1713ZM115.97 76.1602V83.8562H117.97V76.1602H115.97ZM116.97 82.8562H113.885V84.8562H116.97V82.8562ZM123.537 83.8562H122.537V84.8562H123.537V83.8562ZM123.537 66.4017V65.4017H122.537V66.4017H123.537ZM126.622 66.4017H127.622V65.4017H126.622V66.4017ZM126.622 72.9301H125.622V73.9301H126.622V72.9301ZM126.75 72.9301V73.9301H127.368L127.645 73.3773L126.75 72.9301ZM127.423 71.9159L128.201 72.5451L128.205 72.5391L127.423 71.9159ZM128.6 70.9869L129.059 71.8751L129.067 71.8709L128.6 70.9869ZM133.227 71.3704L132.69 72.2141L132.697 72.2184L133.227 71.3704ZM135.171 73.646L134.267 74.0747L134.27 74.0809L135.171 73.646ZM135.188 80.9926L134.282 80.568L135.188 80.9926ZM133.261 83.2937L133.807 84.132L133.261 83.2937ZM128.634 83.7113L128.182 84.6037L128.634 83.7113ZM127.44 82.8079L126.669 83.4445L126.675 83.4511L126.68 83.4577L127.44 82.8079ZM126.75 81.7937L127.638 81.3338L127.358 80.7937H126.75V81.7937ZM126.571 81.7937V80.7937H125.571V81.7937H126.571ZM126.571 83.8562V84.8562H127.571V83.8562H126.571ZM126.921 79.5352L125.984 79.8863L125.987 79.8936L126.921 79.5352ZM127.969 81.0267L127.35 81.8124L127.361 81.8207L127.969 81.0267ZM131.352 81.0096L131.972 81.7943L131.978 81.7895L131.352 81.0096ZM132.392 79.5011L131.455 79.1527L131.453 79.1573L132.392 79.5011ZM132.401 75.146L133.339 74.7995L132.401 75.146ZM131.361 73.663L131.975 72.8737L131.361 73.663ZM127.96 73.646L127.359 72.8472L127.96 73.646ZM126.912 75.1034L125.978 74.7466L125.975 74.7541L126.912 75.1034ZM124.537 83.8562V66.4017H122.537V83.8562H124.537ZM123.537 67.4017H126.622V65.4017H123.537V67.4017ZM125.622 66.4017V72.9301H127.622V66.4017H125.622ZM126.622 73.9301H126.75V71.9301H126.622V73.9301ZM127.645 73.3773C127.763 73.1395 127.944 72.8623 128.201 72.5451L126.646 71.2867C126.323 71.6854 126.055 72.0843 125.856 72.4829L127.645 73.3773ZM128.205 72.5391C128.392 72.305 128.665 72.0786 129.059 71.8751L128.14 70.0987C127.545 70.4065 127.034 70.7995 126.641 71.2927L128.205 72.5391ZM129.067 71.8709C129.374 71.7087 129.83 71.5948 130.492 71.5948V69.5948C129.619 69.5948 128.814 69.7423 128.132 70.1028L129.067 71.8709ZM130.492 71.5948C131.323 71.5948 132.047 71.8044 132.69 72.2141L133.764 70.5267C132.783 69.9023 131.683 69.5948 130.492 69.5948V71.5948ZM132.697 72.2184C133.33 72.6137 133.859 73.2144 134.267 74.0747L136.074 73.2172C135.528 72.0661 134.761 71.1498 133.757 70.5224L132.697 72.2184ZM134.27 74.0809C134.67 74.91 134.895 75.9791 134.895 77.3278H136.895C136.895 75.7674 136.637 74.382 136.071 73.2111L134.27 74.0809ZM134.895 77.3278C134.895 78.6601 134.676 79.7282 134.282 80.568L136.093 81.4171C136.642 80.2455 136.895 78.8705 136.895 77.3278H134.895ZM134.282 80.568C133.878 81.4301 133.351 82.0428 132.716 82.4554L133.807 84.132C134.797 83.4878 135.554 82.5664 136.093 81.4171L134.282 80.568ZM132.716 82.4554C132.076 82.8717 131.347 83.0863 130.5 83.0863V85.0863C131.71 85.0863 132.822 84.7725 133.807 84.132L132.716 82.4554ZM130.5 83.0863C129.854 83.0863 129.399 82.9777 129.085 82.8189L128.182 84.6037C128.857 84.9449 129.646 85.0863 130.5 85.0863V83.0863ZM129.085 82.8189C128.686 82.6172 128.401 82.3923 128.201 82.1581L126.68 83.4577C127.082 83.928 127.593 84.3054 128.182 84.6037L129.085 82.8189ZM128.212 82.1713C127.949 81.8529 127.762 81.5739 127.638 81.3338L125.862 82.2536C126.067 82.6499 126.341 83.047 126.669 83.4445L128.212 82.1713ZM126.75 80.7937H126.571V82.7937H126.75V80.7937ZM125.571 81.7937V83.8562H127.571V81.7937H125.571ZM126.571 82.8562H123.537V84.8562H126.571V82.8562ZM125.563 77.3107C125.563 78.2489 125.695 79.1139 125.984 79.8863L127.857 79.1841C127.669 78.6838 127.563 78.0658 127.563 77.3107H125.563ZM125.987 79.8936C126.284 80.6679 126.731 81.3244 127.35 81.8123L128.588 80.241C128.298 80.013 128.045 79.6752 127.854 79.1768L125.987 79.8936ZM127.361 81.8207C128.018 82.3234 128.796 82.5551 129.639 82.5551V80.5551C129.176 80.5551 128.84 80.4345 128.577 80.2326L127.361 81.8207ZM129.639 82.5551C130.508 82.5551 131.308 82.3193 131.972 81.7942L130.732 80.225C130.477 80.4272 130.134 80.5551 129.639 80.5551V82.5551ZM131.978 81.7895C132.601 81.29 133.045 80.6266 133.331 79.8448L131.453 79.1573C131.273 79.6484 131.024 79.9906 130.726 80.2297L131.978 81.7895ZM133.329 79.8495C133.617 79.0766 133.75 78.2253 133.75 77.3107H131.75C131.75 78.0325 131.645 78.6415 131.455 79.1527L133.329 79.8495ZM133.75 77.3107C133.75 76.4039 133.62 75.5615 133.339 74.7995L131.463 75.4925C131.647 75.9918 131.75 76.5926 131.75 77.3107H133.75ZM133.339 74.7995C133.051 74.0212 132.604 73.3628 131.975 72.8737L130.747 74.4524C131.039 74.6792 131.284 75.0094 131.463 75.4925L133.339 74.7995ZM131.975 72.8737C131.309 72.3558 130.508 72.1261 129.639 72.1261V74.1261C130.146 74.1261 130.492 74.2543 130.747 74.4524L131.975 72.8737ZM129.639 72.1261C128.796 72.1261 128.017 72.3516 127.359 72.8472L128.562 74.4448C128.824 74.2471 129.165 74.1261 129.639 74.1261V72.1261ZM127.359 72.8472C126.725 73.3242 126.273 73.9748 125.978 74.7467L127.846 75.4601C128.029 74.9819 128.275 74.661 128.562 74.4448L127.359 72.8472ZM125.975 74.7541C125.691 75.5164 125.563 76.3756 125.563 77.3107H127.563C127.563 76.5527 127.667 75.9403 127.849 75.4526L125.975 74.7541ZM140.043 83.6772L139.628 84.5868L139.637 84.591L140.043 83.6772ZM138.475 82.3477L137.637 82.893L137.641 82.8986L138.475 82.3477ZM138.313 78.3505L137.443 77.8588L138.313 78.3505ZM139.43 77.1914L138.906 76.3394H138.906L139.43 77.1914ZM141.024 76.5352L141.266 77.5053L141.273 77.5037L141.024 76.5352ZM142.873 76.2028L142.77 75.2081L142.766 75.2085L142.873 76.2028ZM144.739 75.9897L144.869 76.9813L144.881 76.9797L144.739 75.9897ZM145.779 75.6829L146.313 76.5284L146.319 76.5248L145.779 75.6829ZM145.541 73.484L146.22 72.7501V72.7501L145.541 73.484ZM142.097 73.45L141.501 72.6475L141.496 72.6512L142.097 73.45ZM141.211 74.6176L141.07 75.6076L141.89 75.724L142.157 74.941L141.211 74.6176ZM138.33 74.2085L137.369 73.9338L137.054 75.0372L138.19 75.1985L138.33 74.2085ZM139.455 72.2142L140.17 72.9136L140.174 72.9098L139.455 72.2142ZM141.373 71.0039L141.706 71.9468L141.712 71.9445L141.373 71.0039ZM147.475 71.5494L146.925 72.3843L146.931 72.3885L147.475 71.5494ZM148.72 72.9215L147.839 73.3962L147.843 73.4028L148.72 72.9215ZM149.197 83.8562V84.8562H150.197V83.8562H149.197ZM146.231 83.8562H145.231V84.8562H146.231V83.8562ZM146.231 82.0579H147.231V81.0579H146.231V82.0579ZM146.129 82.0579V81.0579H145.519L145.24 81.5996L146.129 82.0579ZM145.336 83.0806L146.018 83.8121L146.018 83.8117L145.336 83.0806ZM144.066 83.8392L144.414 84.7768L144.42 84.7746L144.066 83.8392ZM144.697 81.4869L145.17 82.3677L145.179 82.3631L144.697 81.4869ZM145.745 80.4982L144.892 79.9768L144.887 79.9855L145.745 80.4982ZM146.12 77.6176H147.12V75.4986L145.484 76.8456L146.12 77.6176ZM145.626 77.8392L145.345 76.8794L145.338 76.8813L145.626 77.8392ZM144.859 78.0181L145.036 79.0023L144.859 78.0181ZM143.291 78.2568L143.425 79.2477L143.428 79.2473L143.291 78.2568ZM142.055 78.5636L141.691 77.6321L142.055 78.5636ZM141.194 79.1602L141.959 79.8038L141.966 79.7953L141.194 79.1602ZM141.501 81.4187L140.928 82.2385L141.501 81.4187ZM142.285 83.1204C141.576 83.1204 140.97 82.9946 140.45 82.7634L139.637 84.591C140.447 84.9508 141.335 85.1204 142.285 85.1204V83.1204ZM140.459 82.7677C139.964 82.5417 139.589 82.2201 139.31 81.7967L137.641 82.8986C138.134 83.6457 138.804 84.2105 139.628 84.5868L140.459 82.7677ZM139.313 81.8024C139.06 81.4131 138.904 80.8918 138.904 80.1829H136.904C136.904 81.1899 137.129 82.1118 137.637 82.893L139.313 81.8024ZM138.904 80.1829C138.904 79.5614 139.02 79.1335 139.184 78.8422L137.443 77.8588C137.062 78.5335 136.904 79.3271 136.904 80.1829H138.904ZM139.184 78.8422C139.374 78.5065 139.626 78.2443 139.953 78.0434L138.906 76.3394C138.29 76.7181 137.798 77.2286 137.443 77.8588L139.184 78.8422ZM139.953 78.0434C140.33 77.8123 140.764 77.6307 141.266 77.5053L140.781 75.565C140.101 75.7351 139.473 75.9911 138.906 76.3394L139.953 78.0434ZM141.273 77.5037C141.821 77.3628 142.389 77.2603 142.979 77.1971L142.766 75.2085C142.084 75.2816 141.42 75.4008 140.774 75.5667L141.273 77.5037ZM142.976 77.1975C143.747 77.1175 144.379 77.0454 144.869 76.9813L144.61 74.9982C144.145 75.059 143.533 75.129 142.77 75.2081L142.976 77.1975ZM144.881 76.9797C145.396 76.9061 145.914 76.7805 146.313 76.5284L145.245 74.8374C145.245 74.8374 145.242 74.8394 145.235 74.8432C145.227 74.8469 145.217 74.852 145.202 74.8582C145.173 74.8708 145.131 74.8861 145.074 74.9028C144.96 74.9366 144.804 74.9704 144.598 74.9998L144.881 76.9797ZM146.319 76.5248C146.867 76.1737 147.112 75.6135 147.112 75.0267H145.112C145.112 75.0492 145.108 75.017 145.136 74.9605C145.15 74.933 145.168 74.907 145.189 74.8844C145.21 74.8622 145.228 74.8483 145.24 74.841L146.319 76.5248ZM147.112 75.0267V74.9755H145.112V75.0267H147.112ZM147.112 74.9755C147.112 74.1259 146.852 73.3351 146.22 72.7501L144.861 74.218C144.991 74.3376 145.112 74.541 145.112 74.9755H147.112ZM146.22 72.7501C145.594 72.1709 144.767 71.9556 143.896 71.9556V73.9556C144.456 73.9556 144.726 74.0927 144.861 74.218L146.22 72.7501ZM143.896 71.9556C143.003 71.9556 142.17 72.1499 141.501 72.6475L142.694 74.2524C142.911 74.0909 143.277 73.9556 143.896 73.9556V71.9556ZM141.496 72.6512C140.924 73.082 140.492 73.6279 140.265 74.2942L142.157 74.941C142.236 74.7095 142.396 74.477 142.699 74.2487L141.496 72.6512ZM141.352 73.6275L138.471 73.2184L138.19 75.1985L141.07 75.6076L141.352 73.6275ZM139.292 74.4832C139.478 73.8302 139.776 73.3165 140.17 72.9136L138.741 71.5147C138.09 72.18 137.637 72.9958 137.369 73.9338L139.292 74.4832ZM140.174 72.9098C140.582 72.4885 141.086 72.1658 141.706 71.9468L141.04 70.0611C140.148 70.3761 139.374 70.8603 138.737 71.5185L140.174 72.9098ZM141.712 71.9445C142.345 71.7162 143.064 71.5948 143.879 71.5948V69.5948C142.864 69.5948 141.912 69.7463 141.033 70.0633L141.712 71.9445ZM143.879 71.5948C144.43 71.5948 144.981 71.6594 145.532 71.7896L145.992 69.8432C145.293 69.678 144.588 69.5948 143.879 69.5948V71.5948ZM145.532 71.7896C146.047 71.9114 146.509 72.1102 146.925 72.3842L148.026 70.7145C147.407 70.3067 146.727 70.0169 145.992 69.8432L145.532 71.7896ZM146.931 72.3885C147.298 72.6261 147.601 72.954 147.839 73.3962L149.6 72.4469C149.213 71.73 148.687 71.1431 148.019 70.7103L146.931 72.3885ZM147.843 73.4028C148.059 73.7957 148.197 74.3425 148.197 75.0948H150.197C150.197 74.1085 150.017 73.2065 149.596 72.4403L147.843 73.4028ZM148.197 75.0948V83.8562H150.197V75.0948H148.197ZM149.197 82.8562H146.231V84.8562H149.197V82.8562ZM147.231 83.8562V82.0579H145.231V83.8562H147.231ZM146.231 81.0579H146.129V83.0579H146.231V81.0579ZM145.24 81.5996C145.112 81.8479 144.922 82.099 144.654 82.3496L146.018 83.8117C146.432 83.4259 146.77 82.9951 147.017 82.5162L145.24 81.5996ZM144.654 82.3492C144.431 82.5576 144.125 82.7478 143.713 82.9037L144.42 84.7746C145.03 84.5441 145.571 84.2287 146.018 83.8121L144.654 82.3492ZM143.718 82.9015C143.349 83.0385 142.878 83.1204 142.285 83.1204V85.1204C143.055 85.1204 143.772 85.0148 144.414 84.7768L143.718 82.9015ZM143.086 82.8534C143.838 82.8534 144.544 82.7045 145.17 82.3677L144.223 80.6061C143.941 80.7579 143.573 80.8534 143.086 80.8534V82.8534ZM145.179 82.3631C145.775 82.0354 146.26 81.5859 146.604 81.011L144.887 79.9855C144.741 80.2288 144.528 80.4384 144.215 80.6107L145.179 82.3631ZM146.598 81.0197C146.945 80.4524 147.12 79.8257 147.12 79.1602H145.12C145.12 79.4606 145.045 79.7259 144.892 79.9768L146.598 81.0197ZM147.12 79.1602V77.6176H145.12V79.1602H147.12ZM145.484 76.8456C145.508 76.8259 145.525 76.8159 145.529 76.8137C145.533 76.8114 145.529 76.8138 145.515 76.8201C145.486 76.8333 145.431 76.8541 145.345 76.8794L145.907 78.7989C146.17 78.7217 146.497 78.6025 146.756 78.3895L145.484 76.8456ZM145.338 76.8813C145.154 76.9366 144.936 76.9881 144.682 77.0339L145.036 79.0023C145.35 78.9459 145.643 78.878 145.913 78.797L145.338 76.8813ZM144.682 77.0339C144.409 77.083 144.14 77.1265 143.874 77.1645L144.156 79.1444C144.447 79.1029 144.74 79.0555 145.036 79.0023L144.682 77.0339ZM143.874 77.1645C143.596 77.2042 143.356 77.2381 143.153 77.2663L143.428 79.2473C143.634 79.2186 143.877 79.1843 144.156 79.1444L143.874 77.1645ZM143.156 77.2659C142.632 77.3371 142.141 77.4564 141.691 77.6321L142.419 79.495C142.696 79.3867 143.029 79.3015 143.425 79.2477L143.156 77.2659ZM141.691 77.6321C141.197 77.8252 140.758 78.1154 140.422 78.5251L141.966 79.7953C142.05 79.6936 142.186 79.5861 142.419 79.495L141.691 77.6321ZM140.429 78.5166C140.036 78.9837 139.879 79.5518 139.879 80.1318H141.879C141.879 79.9163 141.932 79.8366 141.959 79.8038L140.429 78.5166ZM139.879 80.1318C139.879 80.9799 140.209 81.7364 140.928 82.2385L142.074 80.5989C141.963 80.5215 141.879 80.42 141.879 80.1318H139.879ZM140.928 82.2385C141.551 82.6736 142.294 82.8534 143.086 82.8534V80.8534C142.594 80.8534 142.28 80.7433 142.074 80.5989L140.928 82.2385ZM155.384 83.8562V84.8562H156.384V83.8562H155.384ZM152.299 83.8562H151.299V84.8562H152.299V83.8562ZM152.299 70.7653V69.7653H151.299V70.7653H152.299ZM155.248 70.7653H156.248V69.7653H155.248V70.7653ZM155.248 72.9897H154.248V73.9897H155.248V72.9897ZM155.401 72.9897V73.9897H156.072L156.326 73.3698L155.401 72.9897ZM156.842 71.2426L156.297 70.404L156.294 70.4061L156.842 71.2426ZM161.666 71.1744L161.166 72.0408L161.169 72.0426L161.666 71.1744ZM163.234 72.8534L162.341 73.3033L162.344 73.3088L163.234 72.8534ZM163.788 75.521L162.788 75.5155V75.521H163.788ZM163.788 83.8562V84.8562H164.788V83.8562H163.788ZM160.703 83.8562H159.703V84.8562H160.703V83.8562ZM160.021 73.9443L159.28 74.6165L159.285 74.6211L160.021 73.9443ZM156.714 73.5607L157.204 74.4326L157.207 74.4304L156.714 73.5607ZM155.734 74.575L154.853 74.1008L154.849 74.1097L155.734 74.575ZM154.384 76.1857V83.8562H156.384V76.1857H154.384ZM155.384 82.8562H152.299V84.8562H155.384V82.8562ZM153.299 83.8562V70.7653H151.299V83.8562H153.299ZM152.299 71.7653H155.248V69.7653H152.299V71.7653ZM154.248 70.7653V72.9897H156.248V70.7653H154.248ZM155.248 73.9897H155.401V71.9897H155.248V73.9897ZM156.326 73.3698C156.551 72.8224 156.9 72.3996 157.39 72.079L156.294 70.4061C155.465 70.9492 154.854 71.6912 154.476 72.6097L156.326 73.3698ZM157.386 72.0812C157.855 71.7769 158.476 71.5948 159.305 71.5948V69.5948C158.179 69.5948 157.158 69.8446 156.297 70.404L157.386 72.0812ZM159.305 71.5948C160.063 71.5948 160.671 71.7556 161.166 72.0408L162.165 70.308C161.319 69.8204 160.354 69.5948 159.305 69.5948V71.5948ZM161.169 72.0426C161.666 72.3262 162.055 72.7358 162.341 73.3033L164.127 72.4034C163.674 71.505 163.018 70.7953 162.162 70.3061L161.169 72.0426ZM162.344 73.3088C162.628 73.8659 162.793 74.5882 162.788 75.5155L164.788 75.5264C164.794 74.3629 164.589 73.3068 164.124 72.3979L162.344 73.3088ZM162.788 75.521V83.8562H164.788V75.521H162.788ZM163.788 82.8562H160.703V84.8562H163.788V82.8562ZM161.703 83.8562V75.9982H159.703V83.8562H161.703ZM161.703 75.9982C161.703 74.9506 161.427 73.9967 160.757 73.2674L159.285 74.6211C159.523 74.8805 159.703 75.2958 159.703 75.9982H161.703ZM160.761 73.272C160.086 72.5291 159.173 72.2028 158.154 72.2028V74.2028C158.726 74.2028 159.057 74.3708 159.28 74.6165L160.761 73.272ZM158.154 72.2028C157.462 72.2028 156.808 72.3574 156.22 72.6911L157.207 74.4304C157.46 74.2868 157.767 74.2028 158.154 74.2028V72.2028ZM156.224 72.6889C155.634 73.0202 155.176 73.5009 154.853 74.1009L156.614 75.0491C156.768 74.7627 156.964 74.5672 157.204 74.4326L156.224 72.6889ZM154.849 74.1097C154.523 74.7288 154.384 75.4341 154.384 76.1857H156.384C156.384 75.676 156.478 75.3074 156.619 75.0402L154.849 74.1097Z" fill="#35C38F" mask="url(#path-6-outside-1_2022_272)"/>
<path d="M173.335 83.8562H167.42V66.4017H173.454C175.187 66.4017 176.676 66.7511 177.92 67.45C179.17 68.1431 180.13 69.1403 180.801 70.4414C181.471 71.7426 181.806 73.2994 181.806 75.1119C181.806 76.9301 181.468 78.4926 180.792 79.7994C180.122 81.1062 179.153 82.109 177.886 82.8079C176.624 83.5068 175.107 83.8562 173.335 83.8562ZM170.582 81.1204H173.181C174.397 81.1204 175.411 80.8988 176.224 80.4556C177.036 80.0068 177.647 79.3392 178.056 78.4528C178.465 77.5607 178.67 76.4471 178.67 75.1119C178.67 73.7767 178.465 72.6687 178.056 71.788C177.647 70.9017 177.042 70.2397 176.241 69.8022C175.445 69.359 174.457 69.1375 173.275 69.1375H170.582V81.1204ZM184.674 83.8562V70.7653H187.666V72.9471H187.802C188.041 72.1914 188.45 71.609 189.029 71.2C189.614 70.7852 190.282 70.5778 191.032 70.5778C191.203 70.5778 191.393 70.5863 191.603 70.6034C191.819 70.6147 191.998 70.6346 192.14 70.663V73.5011C192.009 73.4556 191.802 73.4159 191.518 73.3818C191.239 73.342 190.97 73.3221 190.708 73.3221C190.146 73.3221 189.64 73.4443 189.191 73.6886C188.748 73.9272 188.399 74.2596 188.143 74.6857C187.887 75.1119 187.759 75.6034 187.759 76.1602V83.8562H184.674ZM194.19 83.8562V70.7653H197.275V83.8562H194.19ZM195.741 68.9073C195.252 68.9073 194.832 68.7454 194.479 68.4215C194.127 68.092 193.951 67.6971 193.951 67.2369C193.951 66.771 194.127 66.3761 194.479 66.0522C194.832 65.7227 195.252 65.5579 195.741 65.5579C196.235 65.5579 196.656 65.7227 197.002 66.0522C197.354 66.3761 197.531 66.771 197.531 67.2369C197.531 67.6971 197.354 68.092 197.002 68.4215C196.656 68.7454 196.235 68.9073 195.741 68.9073ZM203.533 66.4017V83.8562H200.448V66.4017H203.533ZM209.791 66.4017V83.8562H206.705V66.4017H209.791Z" fill="#C38F35"/>
<path d="M63.8182 125.856H60.8608V117.129H63.8778C64.7443 117.129 65.4886 117.304 66.1108 117.653C66.7358 118 67.2159 118.498 67.5511 119.149C67.8864 119.799 68.054 120.578 68.054 121.484C68.054 122.393 67.8849 123.174 67.5469 123.828C67.2116 124.481 66.7273 124.983 66.0938 125.332C65.4631 125.681 64.7045 125.856 63.8182 125.856ZM62.4418 124.488H63.7415C64.3494 124.488 64.8565 124.378 65.2628 124.156C65.669 123.931 65.9744 123.598 66.179 123.154C66.3835 122.708 66.4858 122.152 66.4858 121.484C66.4858 120.816 66.3835 120.262 66.179 119.822C65.9744 119.379 65.6719 119.048 65.2713 118.829C64.8736 118.608 64.3793 118.497 63.7884 118.497H62.4418V124.488ZM71.3714 125.988C70.9567 125.988 70.5831 125.914 70.2507 125.767C69.9212 125.616 69.6598 125.395 69.4666 125.102C69.2763 124.809 69.1811 124.449 69.1811 124.02C69.1811 123.65 69.2493 123.345 69.3857 123.103C69.522 122.862 69.7081 122.669 69.9439 122.524C70.1797 122.379 70.4453 122.27 70.7408 122.196C71.0391 122.119 71.3473 122.064 71.6655 122.029C72.049 121.99 72.3601 121.954 72.5987 121.923C72.8374 121.889 73.0107 121.838 73.1186 121.77C73.2294 121.699 73.2848 121.589 73.2848 121.441V121.416C73.2848 121.095 73.1896 120.846 72.9993 120.67C72.8089 120.494 72.5348 120.406 72.1768 120.406C71.799 120.406 71.4993 120.488 71.2777 120.653C71.0589 120.818 70.9112 121.012 70.8345 121.237L69.3942 121.032C69.5078 120.635 69.6953 120.302 69.9567 120.035C70.218 119.765 70.5376 119.564 70.9155 119.43C71.2933 119.294 71.7109 119.226 72.1683 119.226C72.4837 119.226 72.7976 119.262 73.1101 119.336C73.4226 119.41 73.7081 119.532 73.9666 119.703C74.2251 119.87 74.4325 120.099 74.5888 120.389C74.7479 120.679 74.8274 121.041 74.8274 121.476V125.856H73.3445V124.957H73.2933C73.1996 125.139 73.0675 125.309 72.897 125.468C72.7294 125.625 72.5178 125.751 72.2621 125.848C72.0092 125.941 71.7124 125.988 71.3714 125.988ZM71.772 124.855C72.0817 124.855 72.3501 124.794 72.5774 124.672C72.8047 124.547 72.9794 124.382 73.1016 124.177C73.2266 123.973 73.2891 123.75 73.2891 123.508V122.737C73.2408 122.777 73.1584 122.814 73.0419 122.848C72.9283 122.882 72.8004 122.912 72.6584 122.937C72.5163 122.963 72.3757 122.985 72.2365 123.005C72.0973 123.025 71.9766 123.042 71.8743 123.056C71.6442 123.088 71.4382 123.139 71.2564 123.21C71.0746 123.281 70.9311 123.38 70.826 123.508C70.7209 123.633 70.6683 123.795 70.6683 123.994C70.6683 124.278 70.772 124.493 70.9794 124.637C71.1868 124.782 71.451 124.855 71.772 124.855ZM79.647 119.311V120.504H75.8842V119.311H79.647ZM76.8132 117.743H78.3558V123.887C78.3558 124.095 78.3871 124.254 78.4496 124.365C78.5149 124.473 78.6001 124.547 78.7053 124.586C78.8104 124.626 78.9268 124.646 79.0547 124.646C79.1513 124.646 79.2393 124.639 79.3189 124.625C79.4013 124.61 79.4638 124.598 79.5064 124.586L79.7663 125.792C79.6839 125.821 79.5661 125.852 79.4126 125.886C79.2621 125.92 79.0774 125.94 78.8587 125.946C78.4723 125.957 78.1243 125.899 77.8146 125.771C77.505 125.64 77.2592 125.439 77.0774 125.166C76.8984 124.893 76.8104 124.552 76.8132 124.143V117.743ZM83.7646 125.984C83.1083 125.984 82.5415 125.848 82.0643 125.575C81.5898 125.299 81.2248 124.91 80.9691 124.407C80.7134 123.902 80.5856 123.306 80.5856 122.622C80.5856 121.949 80.7134 121.358 80.9691 120.849C81.2276 120.338 81.5884 119.94 82.0515 119.656C82.5146 119.369 83.0586 119.226 83.6836 119.226C84.087 119.226 84.4677 119.291 84.8256 119.422C85.1864 119.549 85.5046 119.748 85.7802 120.018C86.0586 120.288 86.2773 120.632 86.4364 121.049C86.5955 121.464 86.6751 121.958 86.6751 122.532V123.005H81.31V121.966H85.1964C85.1935 121.67 85.1296 121.407 85.0046 121.177C84.8796 120.944 84.7049 120.761 84.4805 120.628C84.2589 120.494 84.0004 120.427 83.7049 120.427C83.3896 120.427 83.1126 120.504 82.8739 120.657C82.6353 120.808 82.4492 121.007 82.3157 121.254C82.185 121.498 82.1183 121.767 82.1154 122.059V122.967C82.1154 123.348 82.185 123.674 82.3242 123.947C82.4634 124.217 82.658 124.424 82.908 124.569C83.158 124.711 83.4506 124.782 83.7859 124.782C84.0103 124.782 84.2134 124.751 84.3952 124.689C84.5771 124.623 84.7347 124.528 84.8683 124.403C85.0018 124.278 85.1026 124.123 85.1708 123.939L86.6112 124.101C86.5202 124.481 86.3469 124.814 86.0913 125.098C85.8384 125.379 85.5146 125.598 85.1197 125.754C84.7248 125.907 84.2731 125.984 83.7646 125.984ZM91.0249 125.856V117.129H94.3658C94.9964 117.129 95.5206 117.228 95.9382 117.427C96.3587 117.623 96.6726 117.892 96.88 118.233C97.0902 118.574 97.1953 118.96 97.1953 119.392C97.1953 119.747 97.1271 120.051 96.9908 120.304C96.8544 120.554 96.6712 120.757 96.4411 120.913C96.2109 121.069 95.9538 121.181 95.6697 121.25V121.335C95.9794 121.352 96.2763 121.447 96.5604 121.62C96.8473 121.791 97.0817 122.032 97.2635 122.345C97.4453 122.657 97.5362 123.035 97.5362 123.478C97.5362 123.93 97.4268 124.336 97.2081 124.697C96.9893 125.055 96.6598 125.338 96.2195 125.545C95.7791 125.753 95.2251 125.856 94.5575 125.856H91.0249ZM92.6058 124.535H94.3061C94.88 124.535 95.2933 124.426 95.5462 124.207C95.8018 123.985 95.9297 123.701 95.9297 123.355C95.9297 123.096 95.8658 122.863 95.7379 122.656C95.6101 122.446 95.4283 122.281 95.1925 122.162C94.9567 122.039 94.6754 121.978 94.3487 121.978H92.6058V124.535ZM92.6058 120.841H94.1697C94.4425 120.841 94.6882 120.791 94.907 120.691C95.1257 120.589 95.2976 120.446 95.4226 120.261C95.5504 120.074 95.6143 119.852 95.6143 119.596C95.6143 119.258 95.495 118.98 95.2564 118.761C95.0206 118.542 94.6697 118.433 94.2038 118.433H92.6058V120.841ZM100.386 117.129V125.856H98.8434V117.129H100.386ZM103.856 125.988C103.441 125.988 103.067 125.914 102.735 125.767C102.406 125.616 102.144 125.395 101.951 125.102C101.761 124.809 101.665 124.449 101.665 124.02C101.665 123.65 101.734 123.345 101.87 123.103C102.006 122.862 102.192 122.669 102.428 122.524C102.664 122.379 102.93 122.27 103.225 122.196C103.523 122.119 103.832 122.064 104.15 122.029C104.533 121.99 104.844 121.954 105.083 121.923C105.322 121.889 105.495 121.838 105.603 121.77C105.714 121.699 105.769 121.589 105.769 121.441V121.416C105.769 121.095 105.674 120.846 105.484 120.67C105.293 120.494 105.019 120.406 104.661 120.406C104.283 120.406 103.984 120.488 103.762 120.653C103.543 120.818 103.396 121.012 103.319 121.237L101.879 121.032C101.992 120.635 102.18 120.302 102.441 120.035C102.702 119.765 103.022 119.564 103.4 119.43C103.778 119.294 104.195 119.226 104.653 119.226C104.968 119.226 105.282 119.262 105.594 119.336C105.907 119.41 106.192 119.532 106.451 119.703C106.71 119.87 106.917 120.099 107.073 120.389C107.232 120.679 107.312 121.041 107.312 121.476V125.856H105.829V124.957H105.778C105.684 125.139 105.552 125.309 105.381 125.468C105.214 125.625 105.002 125.751 104.746 125.848C104.494 125.941 104.197 125.988 103.856 125.988ZM104.256 124.855C104.566 124.855 104.835 124.794 105.062 124.672C105.289 124.547 105.464 124.382 105.586 124.177C105.711 123.973 105.773 123.75 105.773 123.508V122.737C105.725 122.777 105.643 122.814 105.526 122.848C105.413 122.882 105.285 122.912 105.143 122.937C105.001 122.963 104.86 122.985 104.721 123.005C104.582 123.025 104.461 123.042 104.359 123.056C104.129 123.088 103.923 123.139 103.741 123.21C103.559 123.281 103.415 123.38 103.31 123.508C103.205 123.633 103.153 123.795 103.153 123.994C103.153 124.278 103.256 124.493 103.464 124.637C103.671 124.782 103.935 124.855 104.256 124.855ZM111.718 125.984C111.065 125.984 110.504 125.841 110.035 125.554C109.569 125.267 109.21 124.87 108.957 124.365C108.707 123.856 108.582 123.271 108.582 122.609C108.582 121.944 108.71 121.358 108.965 120.849C109.221 120.338 109.582 119.94 110.048 119.656C110.516 119.369 111.07 119.226 111.71 119.226C112.241 119.226 112.711 119.324 113.12 119.52C113.532 119.713 113.86 119.987 114.104 120.342C114.349 120.694 114.488 121.106 114.522 121.578H113.048C112.988 121.262 112.846 121 112.621 120.789C112.4 120.576 112.103 120.47 111.731 120.47C111.415 120.47 111.138 120.555 110.9 120.726C110.661 120.893 110.475 121.135 110.342 121.45C110.211 121.765 110.146 122.143 110.146 122.583C110.146 123.029 110.211 123.413 110.342 123.734C110.472 124.052 110.656 124.298 110.891 124.471C111.13 124.642 111.41 124.727 111.731 124.727C111.958 124.727 112.161 124.684 112.34 124.599C112.522 124.511 112.674 124.385 112.796 124.22C112.918 124.055 113.002 123.855 113.048 123.619H114.522C114.485 124.082 114.349 124.493 114.113 124.851C113.877 125.206 113.556 125.484 113.15 125.686C112.744 125.885 112.266 125.984 111.718 125.984ZM117.195 123.802L117.191 121.94H117.438L119.79 119.311H121.593L118.699 122.532H118.38L117.195 123.802ZM115.789 125.856V117.129H117.331V125.856H115.789ZM119.897 125.856L117.766 122.878L118.806 121.791L121.742 125.856H119.897ZM124.163 117.129V125.856H122.621V117.129H124.163ZM125.75 125.856V119.311H127.292V125.856H125.75ZM126.525 118.382C126.281 118.382 126.071 118.301 125.895 118.139C125.718 117.974 125.63 117.777 125.63 117.547C125.63 117.314 125.718 117.116 125.895 116.954C126.071 116.789 126.281 116.707 126.525 116.707C126.772 116.707 126.983 116.789 127.156 116.954C127.332 117.116 127.42 117.314 127.42 117.547C127.42 117.777 127.332 117.974 127.156 118.139C126.983 118.301 126.772 118.382 126.525 118.382ZM134.052 121.041L132.646 121.194C132.606 121.052 132.536 120.919 132.437 120.794C132.34 120.669 132.21 120.568 132.045 120.491C131.88 120.414 131.678 120.376 131.44 120.376C131.119 120.376 130.849 120.446 130.63 120.585C130.414 120.724 130.308 120.904 130.31 121.126C130.308 121.316 130.377 121.471 130.519 121.591C130.664 121.71 130.903 121.808 131.235 121.885L132.352 122.123C132.971 122.257 133.431 122.468 133.732 122.758C134.036 123.048 134.19 123.427 134.192 123.896C134.19 124.308 134.069 124.672 133.83 124.987C133.594 125.299 133.266 125.544 132.846 125.72C132.425 125.896 131.942 125.984 131.397 125.984C130.596 125.984 129.951 125.816 129.462 125.481C128.974 125.143 128.683 124.673 128.589 124.071L130.093 123.926C130.161 124.221 130.306 124.444 130.528 124.595C130.749 124.745 131.038 124.821 131.393 124.821C131.759 124.821 132.053 124.745 132.275 124.595C132.499 124.444 132.612 124.258 132.612 124.037C132.612 123.849 132.539 123.694 132.394 123.572C132.252 123.45 132.031 123.356 131.729 123.291L130.613 123.056C129.985 122.926 129.521 122.706 129.219 122.396C128.918 122.083 128.769 121.689 128.772 121.211C128.769 120.808 128.879 120.458 129.1 120.163C129.325 119.865 129.636 119.635 130.033 119.473C130.434 119.308 130.896 119.226 131.418 119.226C132.185 119.226 132.789 119.389 133.229 119.716C133.673 120.042 133.947 120.484 134.052 121.041ZM138.733 119.311V120.504H134.97V119.311H138.733ZM135.899 117.743H137.442V123.887C137.442 124.095 137.473 124.254 137.536 124.365C137.601 124.473 137.686 124.547 137.791 124.586C137.896 124.626 138.013 124.646 138.141 124.646C138.237 124.646 138.325 124.639 138.405 124.625C138.487 124.61 138.55 124.598 138.592 124.586L138.852 125.792C138.77 125.821 138.652 125.852 138.499 125.886C138.348 125.92 138.163 125.94 137.945 125.946C137.558 125.957 137.21 125.899 136.901 125.771C136.591 125.64 136.345 125.439 136.163 125.166C135.984 124.893 135.896 124.552 135.899 124.143V117.743ZM142.85 125.984C142.194 125.984 141.627 125.848 141.15 125.575C140.676 125.299 140.311 124.91 140.055 124.407C139.799 123.902 139.672 123.306 139.672 122.622C139.672 121.949 139.799 121.358 140.055 120.849C140.314 120.338 140.674 119.94 141.137 119.656C141.6 119.369 142.145 119.226 142.77 119.226C143.173 119.226 143.554 119.291 143.912 119.422C144.272 119.549 144.591 119.748 144.866 120.018C145.145 120.288 145.363 120.632 145.522 121.049C145.681 121.464 145.761 121.958 145.761 122.532V123.005H140.396V121.966H144.282C144.279 121.67 144.216 121.407 144.091 121.177C143.966 120.944 143.791 120.761 143.566 120.628C143.345 120.494 143.086 120.427 142.791 120.427C142.475 120.427 142.199 120.504 141.96 120.657C141.721 120.808 141.535 121.007 141.402 121.254C141.271 121.498 141.204 121.767 141.201 122.059V122.967C141.201 123.348 141.271 123.674 141.41 123.947C141.549 124.217 141.744 124.424 141.994 124.569C142.244 124.711 142.537 124.782 142.872 124.782C143.096 124.782 143.299 124.751 143.481 124.689C143.663 124.623 143.821 124.528 143.954 124.403C144.088 124.278 144.189 124.123 144.257 123.939L145.697 124.101C145.606 124.481 145.433 124.814 145.177 125.098C144.924 125.379 144.6 125.598 144.206 125.754C143.811 125.907 143.359 125.984 142.85 125.984ZM149.495 125.971C148.981 125.971 148.521 125.839 148.114 125.575C147.708 125.311 147.387 124.927 147.151 124.424C146.915 123.922 146.798 123.311 146.798 122.592C146.798 121.865 146.917 121.251 147.156 120.751C147.397 120.248 147.722 119.869 148.131 119.613C148.54 119.355 148.996 119.226 149.499 119.226C149.883 119.226 150.198 119.291 150.445 119.422C150.692 119.549 150.888 119.704 151.033 119.886C151.178 120.065 151.29 120.234 151.37 120.393H151.434V117.129H152.981V125.856H151.464V124.825H151.37C151.29 124.984 151.175 125.153 151.025 125.332C150.874 125.508 150.675 125.659 150.428 125.784C150.181 125.909 149.87 125.971 149.495 125.971ZM149.925 124.706C150.252 124.706 150.531 124.618 150.761 124.441C150.991 124.262 151.165 124.014 151.285 123.696C151.404 123.378 151.464 123.007 151.464 122.583C151.464 122.16 151.404 121.792 151.285 121.48C151.168 121.167 150.995 120.924 150.765 120.751C150.538 120.578 150.258 120.491 149.925 120.491C149.582 120.491 149.295 120.581 149.065 120.76C148.835 120.939 148.661 121.186 148.545 121.501C148.428 121.816 148.37 122.177 148.37 122.583C148.37 122.993 148.428 123.358 148.545 123.679C148.664 123.997 148.839 124.248 149.069 124.433C149.302 124.615 149.587 124.706 149.925 124.706ZM155.575 125.95C155.316 125.95 155.095 125.859 154.91 125.677C154.725 125.495 154.635 125.274 154.637 125.012C154.635 124.757 154.725 124.538 154.91 124.356C155.095 124.174 155.316 124.083 155.575 124.083C155.825 124.083 156.042 124.174 156.227 124.356C156.414 124.538 156.51 124.757 156.512 125.012C156.51 125.186 156.464 125.343 156.376 125.485C156.291 125.628 156.177 125.741 156.035 125.826C155.896 125.909 155.743 125.95 155.575 125.95ZM155.575 121.279C155.316 121.279 155.095 121.189 154.91 121.007C154.725 120.822 154.635 120.601 154.637 120.342C154.635 120.086 154.725 119.868 154.91 119.686C155.095 119.501 155.316 119.409 155.575 119.409C155.825 119.409 156.042 119.501 156.227 119.686C156.414 119.868 156.51 120.086 156.512 120.342C156.51 120.512 156.464 120.669 156.376 120.811C156.291 120.953 156.177 121.066 156.035 121.152C155.896 121.237 155.743 121.279 155.575 121.279Z" fill="#E9F5FF"/>
<path d="M66.1364 137.112C66.733 137.117 67.3295 137.23 67.9261 137.453C68.5227 137.675 69.0672 138.045 69.5597 138.561C70.0521 139.072 70.4474 139.77 70.7457 140.656C71.044 141.541 71.1932 142.652 71.1932 143.987C71.1932 145.279 71.0701 146.428 70.8239 147.431C70.5824 148.431 70.232 149.273 69.7727 149.96C69.3182 150.646 68.7642 151.167 68.1108 151.522C67.4621 151.878 66.7282 152.055 65.9091 152.055C65.0947 152.055 64.3679 151.894 63.7287 151.572C63.0942 151.245 62.5734 150.793 62.1662 150.216C61.7637 149.633 61.5057 148.958 61.392 148.191H63.125C63.2812 148.859 63.5914 149.411 64.0554 149.846C64.5241 150.277 65.142 150.493 65.9091 150.493C67.0313 150.493 67.9167 150.003 68.5653 149.022C69.2188 148.042 69.5455 146.657 69.5455 144.868H69.4318C69.1667 145.265 68.8518 145.609 68.4872 145.897C68.1226 146.186 67.7178 146.409 67.2727 146.565C66.8277 146.721 66.3542 146.799 65.8523 146.799C65.0189 146.799 64.2543 146.593 63.5582 146.181C62.867 145.765 62.313 145.194 61.8963 144.47C61.4844 143.741 61.2784 142.907 61.2784 141.97C61.2784 141.08 61.4773 140.265 61.875 139.527C62.2775 138.783 62.8409 138.191 63.5653 137.751C64.2945 137.311 65.1515 137.098 66.1364 137.112ZM66.1364 138.674C65.5398 138.674 65.0024 138.824 64.5241 139.122C64.0507 139.415 63.6742 139.813 63.3949 140.315C63.1203 140.812 62.983 141.364 62.983 141.97C62.983 142.576 63.1155 143.128 63.3807 143.625C63.6506 144.117 64.0175 144.51 64.4815 144.804C64.9503 145.092 65.483 145.237 66.0795 145.237C66.5294 145.237 66.9484 145.149 67.3366 144.974C67.7249 144.794 68.0634 144.55 68.3523 144.243C68.6458 143.93 68.8755 143.577 69.0412 143.184C69.2069 142.787 69.2898 142.372 69.2898 141.941C69.2898 141.373 69.1525 140.841 68.8778 140.343C68.608 139.846 68.2339 139.444 67.7557 139.136C67.2822 138.828 66.7424 138.674 66.1364 138.674ZM79.8668 151.856V137.311H88.5884V138.873H81.6282V143.788H87.935V145.351H81.6282V151.856H79.8668ZM95.1509 152.083C94.0998 152.083 93.1931 151.851 92.4308 151.387C91.6732 150.919 91.0884 150.265 90.6765 149.427C90.2693 148.584 90.0657 147.604 90.0657 146.487C90.0657 145.369 90.2693 144.385 90.6765 143.532C91.0884 142.675 91.6613 142.008 92.3952 141.529C93.1339 141.047 93.9956 140.805 94.9805 140.805C95.5487 140.805 96.1097 140.9 96.6637 141.089C97.2177 141.279 97.7219 141.586 98.1765 142.012C98.631 142.434 98.9933 142.993 99.2631 143.689C99.533 144.385 99.668 145.242 99.668 146.26V146.97H91.2589V145.521H97.9634C97.9634 144.905 97.8403 144.356 97.5941 143.873C97.3526 143.39 97.007 143.009 96.5572 142.73C96.1121 142.45 95.5865 142.311 94.9805 142.311C94.3129 142.311 93.7352 142.476 93.2475 142.808C92.7646 143.135 92.3929 143.561 92.1325 144.086C91.872 144.612 91.7418 145.175 91.7418 145.777V146.743C91.7418 147.566 91.8839 148.265 92.168 148.838C92.4568 149.406 92.8569 149.839 93.3683 150.137C93.8796 150.431 94.4738 150.578 95.1509 150.578C95.5913 150.578 95.989 150.516 96.3441 150.393C96.704 150.265 97.0141 150.076 97.2745 149.825C97.5349 149.569 97.7362 149.252 97.8782 148.873L99.4975 149.328C99.3271 149.877 99.0406 150.36 98.6381 150.777C98.2357 151.189 97.7385 151.511 97.1467 151.743C96.5548 151.97 95.8896 152.083 95.1509 152.083ZM102.445 151.856V137.311H104.121V142.68H104.263C104.386 142.491 104.557 142.249 104.775 141.956C104.997 141.657 105.314 141.392 105.726 141.16C106.143 140.923 106.706 140.805 107.417 140.805C108.335 140.805 109.145 141.035 109.846 141.494C110.546 141.953 111.093 142.604 111.486 143.447C111.879 144.29 112.076 145.284 112.076 146.43C112.076 147.585 111.879 148.587 111.486 149.434C111.093 150.277 110.549 150.931 109.853 151.395C109.157 151.854 108.354 152.083 107.445 152.083C106.744 152.083 106.183 151.967 105.762 151.735C105.34 151.499 105.016 151.231 104.789 150.933C104.561 150.63 104.386 150.379 104.263 150.18H104.064V151.856H102.445ZM104.093 146.402C104.093 147.226 104.213 147.952 104.455 148.582C104.696 149.207 105.049 149.697 105.513 150.052C105.977 150.403 106.545 150.578 107.218 150.578C107.918 150.578 108.503 150.393 108.972 150.024C109.445 149.65 109.801 149.148 110.037 148.518C110.279 147.884 110.4 147.178 110.4 146.402C110.4 145.635 110.281 144.943 110.044 144.328C109.812 143.708 109.46 143.217 108.986 142.858C108.517 142.493 107.928 142.311 107.218 142.311C106.536 142.311 105.963 142.484 105.499 142.829C105.035 143.17 104.685 143.648 104.448 144.264C104.211 144.875 104.093 145.587 104.093 146.402ZM114.64 151.856V140.947H116.259V142.595H116.373C116.571 142.055 116.931 141.617 117.452 141.281C117.973 140.945 118.56 140.777 119.213 140.777C119.337 140.777 119.49 140.779 119.675 140.784C119.86 140.788 119.999 140.796 120.094 140.805V142.51C120.037 142.495 119.907 142.474 119.703 142.446C119.505 142.413 119.294 142.396 119.071 142.396C118.541 142.396 118.068 142.507 117.651 142.73C117.239 142.948 116.912 143.251 116.671 143.639C116.434 144.022 116.316 144.46 116.316 144.953V151.856H114.64ZM128.956 147.396V140.947H130.632V151.856H128.956V150.01H128.842C128.587 150.564 128.189 151.035 127.649 151.423C127.109 151.806 126.428 151.998 125.604 151.998C124.922 151.998 124.316 151.849 123.786 151.551C123.255 151.248 122.839 150.793 122.536 150.187C122.232 149.576 122.081 148.807 122.081 147.879V140.947H123.757V147.765C123.757 148.561 123.98 149.195 124.425 149.669C124.875 150.142 125.447 150.379 126.143 150.379C126.56 150.379 126.984 150.272 127.415 150.059C127.85 149.846 128.215 149.52 128.509 149.079C128.807 148.639 128.956 148.078 128.956 147.396ZM136.912 152.112C136.221 152.112 135.594 151.982 135.03 151.721C134.467 151.456 134.019 151.075 133.688 150.578C133.356 150.076 133.191 149.47 133.191 148.76C133.191 148.135 133.314 147.628 133.56 147.24C133.806 146.847 134.135 146.539 134.547 146.316C134.959 146.094 135.414 145.928 135.911 145.819C136.413 145.706 136.917 145.616 137.424 145.549C138.087 145.464 138.624 145.4 139.036 145.358C139.453 145.31 139.756 145.232 139.945 145.123C140.139 145.014 140.236 144.825 140.236 144.555V144.498C140.236 143.797 140.044 143.253 139.661 142.865C139.282 142.476 138.707 142.282 137.935 142.282C137.135 142.282 136.507 142.458 136.053 142.808C135.598 143.158 135.279 143.532 135.094 143.93L133.503 143.362C133.787 142.699 134.166 142.183 134.64 141.814C135.118 141.44 135.639 141.179 136.202 141.032C136.77 140.881 137.329 140.805 137.878 140.805C138.229 140.805 138.631 140.848 139.086 140.933C139.545 141.013 139.988 141.181 140.414 141.437C140.845 141.693 141.202 142.079 141.486 142.595C141.77 143.111 141.912 143.802 141.912 144.669V151.856H140.236V150.379H140.151C140.037 150.616 139.848 150.869 139.583 151.139C139.318 151.409 138.965 151.638 138.525 151.828C138.084 152.017 137.547 152.112 136.912 152.112ZM137.168 150.606C137.831 150.606 138.39 150.476 138.844 150.216C139.303 149.955 139.649 149.619 139.881 149.207C140.118 148.795 140.236 148.362 140.236 147.907V146.373C140.165 146.458 140.009 146.537 139.767 146.608C139.531 146.674 139.256 146.733 138.944 146.785C138.636 146.833 138.335 146.875 138.042 146.913C137.753 146.946 137.518 146.975 137.338 146.998C136.903 147.055 136.496 147.147 136.117 147.275C135.743 147.398 135.44 147.585 135.208 147.836C134.98 148.083 134.867 148.419 134.867 148.845C134.867 149.427 135.082 149.868 135.513 150.166C135.949 150.459 136.5 150.606 137.168 150.606ZM144.972 151.856V140.947H146.591V142.595H146.705C146.903 142.055 147.263 141.617 147.784 141.281C148.305 140.945 148.892 140.777 149.545 140.777C149.669 140.777 149.822 140.779 150.007 140.784C150.192 140.788 150.331 140.796 150.426 140.805V142.51C150.369 142.495 150.239 142.474 150.036 142.446C149.837 142.413 149.626 142.396 149.403 142.396C148.873 142.396 148.4 142.507 147.983 142.73C147.571 142.948 147.244 143.251 147.003 143.639C146.766 144.022 146.648 144.46 146.648 144.953V151.856H144.972ZM153.825 155.947C153.54 155.947 153.287 155.923 153.065 155.876C152.842 155.833 152.688 155.791 152.603 155.748L153.029 154.271C153.436 154.375 153.796 154.413 154.109 154.385C154.421 154.356 154.698 154.217 154.94 153.966C155.186 153.719 155.411 153.319 155.614 152.765L155.927 151.913L151.893 140.947H153.711L156.722 149.64H156.836L159.847 140.947H161.665L157.035 153.447C156.826 154.011 156.568 154.477 156.261 154.846C155.953 155.22 155.595 155.497 155.188 155.677C154.786 155.857 154.331 155.947 153.825 155.947Z" fill="#E9F5FF"/>
<path d="M68.6591 176.493C68.6591 177.433 68.483 178.238 68.1307 178.909C67.7813 179.576 67.304 180.088 66.6989 180.443C66.0966 180.798 65.4134 180.976 64.6491 180.976C63.8849 180.976 63.2003 180.798 62.5952 180.443C61.9929 180.085 61.5156 179.572 61.1634 178.904C60.8139 178.234 60.6392 177.43 60.6392 176.493C60.6392 175.552 60.8139 174.748 61.1634 174.081C61.5156 173.41 61.9929 172.897 62.5952 172.542C63.2003 172.187 63.8849 172.01 64.6491 172.01C65.4134 172.01 66.0966 172.187 66.6989 172.542C67.304 172.897 67.7813 173.41 68.1307 174.081C68.483 174.748 68.6591 175.552 68.6591 176.493ZM67.0696 176.493C67.0696 175.831 66.9659 175.272 66.7585 174.818C66.554 174.36 66.2699 174.015 65.9062 173.782C65.5426 173.547 65.1236 173.429 64.6491 173.429C64.1747 173.429 63.7557 173.547 63.392 173.782C63.0284 174.015 62.7429 174.36 62.5355 174.818C62.331 175.272 62.2287 175.831 62.2287 176.493C62.2287 177.154 62.331 177.714 62.5355 178.172C62.7429 178.626 63.0284 178.971 63.392 179.207C63.7557 179.44 64.1747 179.556 64.6491 179.556C65.1236 179.556 65.5426 179.44 65.9062 179.207C66.2699 178.971 66.554 178.626 66.7585 178.172C66.9659 177.714 67.0696 177.154 67.0696 176.493ZM73.4009 174.311V175.504H69.5316V174.311H73.4009ZM70.4989 180.856V173.693C70.4989 173.253 70.5898 172.886 70.7717 172.593C70.9563 172.301 71.2035 172.082 71.5131 171.937C71.8228 171.792 72.1665 171.72 72.5444 171.72C72.8114 171.72 73.0487 171.741 73.256 171.784C73.4634 171.826 73.6168 171.865 73.7163 171.899L73.4094 173.092C73.3441 173.072 73.2617 173.052 73.1623 173.032C73.0629 173.01 72.9521 172.998 72.8299 172.998C72.543 172.998 72.3398 173.068 72.2205 173.207C72.104 173.343 72.0458 173.539 72.0458 173.795V180.856H70.4989ZM77.9244 174.311V175.504H74.055V174.311H77.9244ZM75.0224 180.856V173.693C75.0224 173.253 75.1133 172.886 75.2951 172.593C75.4798 172.301 75.7269 172.082 76.0366 171.937C76.3462 171.792 76.69 171.72 77.0678 171.72C77.3349 171.72 77.5721 171.741 77.7795 171.784C77.9869 171.826 78.1403 171.865 78.2397 171.899L77.9329 173.092C77.8675 173.072 77.7852 173.052 77.6857 173.032C77.5863 173.01 77.4755 172.998 77.3533 172.998C77.0664 172.998 76.8633 173.068 76.744 173.207C76.6275 173.343 76.5692 173.539 76.5692 173.795V180.856H75.0224ZM81.7841 180.984C81.1278 180.984 80.5611 180.848 80.0838 180.575C79.6094 180.299 79.2443 179.91 78.9886 179.407C78.733 178.902 78.6051 178.306 78.6051 177.622C78.6051 176.949 78.733 176.358 78.9886 175.849C79.2472 175.338 79.608 174.94 80.071 174.656C80.5341 174.369 81.0781 174.226 81.7031 174.226C82.1065 174.226 82.4872 174.291 82.8452 174.422C83.206 174.549 83.5241 174.748 83.7997 175.018C84.0781 175.288 84.2969 175.632 84.456 176.049C84.6151 176.464 84.6946 176.958 84.6946 177.532V178.005H79.3295V176.966H83.2159C83.2131 176.67 83.1491 176.407 83.0241 176.177C82.8991 175.944 82.7244 175.761 82.5 175.628C82.2784 175.494 82.0199 175.427 81.7244 175.427C81.4091 175.427 81.1321 175.504 80.8935 175.657C80.6548 175.808 80.4688 176.007 80.3352 176.254C80.2045 176.498 80.1378 176.767 80.1349 177.059V177.967C80.1349 178.348 80.2045 178.674 80.3438 178.947C80.483 179.217 80.6776 179.424 80.9276 179.569C81.1776 179.711 81.4702 179.782 81.8054 179.782C82.0298 179.782 82.233 179.751 82.4148 179.689C82.5966 179.623 82.7543 179.528 82.8878 179.403C83.0213 179.278 83.1222 179.123 83.1903 178.939L84.6307 179.101C84.5398 179.481 84.3665 179.814 84.1108 180.098C83.858 180.379 83.5341 180.598 83.1392 180.754C82.7443 180.907 82.2926 180.984 81.7841 180.984ZM87.5423 177.021V180.856H85.9996V174.311H87.4741V175.423H87.5508C87.7013 175.056 87.9414 174.765 88.271 174.549C88.6033 174.333 89.0138 174.226 89.5025 174.226C89.9542 174.226 90.3477 174.322 90.6829 174.515C91.021 174.708 91.2823 174.988 91.467 175.355C91.6545 175.721 91.7468 176.166 91.744 176.689V180.856H90.2013V176.927C90.2013 176.49 90.0877 176.147 89.8604 175.9C89.636 175.653 89.3249 175.529 88.9272 175.529C88.6573 175.529 88.4173 175.589 88.207 175.708C87.9996 175.825 87.8363 175.994 87.717 176.216C87.6005 176.437 87.5423 176.706 87.5423 177.021ZM96.1673 180.984C95.5138 180.984 94.9528 180.841 94.484 180.554C94.0181 180.267 93.6587 179.87 93.4059 179.365C93.1559 178.856 93.0309 178.271 93.0309 177.609C93.0309 176.944 93.1587 176.358 93.4144 175.849C93.6701 175.338 94.0309 174.94 94.4968 174.656C94.9656 174.369 95.5195 174.226 96.1587 174.226C96.69 174.226 97.1602 174.324 97.5692 174.52C97.9812 174.713 98.3093 174.987 98.5536 175.342C98.7979 175.694 98.9371 176.106 98.9712 176.578H97.4968C97.4371 176.262 97.2951 176 97.0707 175.789C96.8491 175.576 96.5522 175.47 96.18 175.47C95.8647 175.47 95.5877 175.555 95.3491 175.726C95.1104 175.893 94.9244 176.135 94.7908 176.45C94.6602 176.765 94.5948 177.143 94.5948 177.583C94.5948 178.029 94.6602 178.413 94.7908 178.734C94.9215 179.052 95.1048 179.298 95.3406 179.471C95.5792 179.642 95.859 179.727 96.18 179.727C96.4073 179.727 96.6104 179.684 96.7894 179.599C96.9712 179.511 97.1232 179.385 97.2454 179.22C97.3675 179.055 97.4513 178.855 97.4968 178.619H98.9712C98.9343 179.082 98.7979 179.493 98.5621 179.851C98.3263 180.206 98.0053 180.484 97.5991 180.686C97.1928 180.885 96.7156 180.984 96.1673 180.984ZM103.136 180.984C102.479 180.984 101.913 180.848 101.435 180.575C100.961 180.299 100.596 179.91 100.34 179.407C100.085 178.902 99.9567 178.306 99.9567 177.622C99.9567 176.949 100.085 176.358 100.34 175.849C100.599 175.338 100.96 174.94 101.423 174.656C101.886 174.369 102.43 174.226 103.055 174.226C103.458 174.226 103.839 174.291 104.197 174.422C104.558 174.549 104.876 174.748 105.151 175.018C105.43 175.288 105.648 175.632 105.808 176.049C105.967 176.464 106.046 176.958 106.046 177.532V178.005H100.681V176.966H104.567C104.565 176.67 104.501 176.407 104.376 176.177C104.251 175.944 104.076 175.761 103.852 175.628C103.63 175.494 103.371 175.427 103.076 175.427C102.761 175.427 102.484 175.504 102.245 175.657C102.006 175.808 101.82 176.007 101.687 176.254C101.556 176.498 101.489 176.767 101.487 177.059V177.967C101.487 178.348 101.556 178.674 101.695 178.947C101.835 179.217 102.029 179.424 102.279 179.569C102.529 179.711 102.822 179.782 103.157 179.782C103.381 179.782 103.585 179.751 103.766 179.689C103.948 179.623 104.106 179.528 104.239 179.403C104.373 179.278 104.474 179.123 104.542 178.939L105.982 179.101C105.891 179.481 105.718 179.814 105.462 180.098C105.21 180.379 104.886 180.598 104.491 180.754C104.096 180.907 103.644 180.984 103.136 180.984ZM108.301 180.95C108.043 180.95 107.821 180.859 107.637 180.677C107.452 180.495 107.361 180.274 107.364 180.012C107.361 179.757 107.452 179.538 107.637 179.356C107.821 179.174 108.043 179.083 108.301 179.083C108.551 179.083 108.769 179.174 108.953 179.356C109.141 179.538 109.236 179.757 109.239 180.012C109.236 180.186 109.191 180.343 109.103 180.485C109.017 180.628 108.904 180.741 108.762 180.826C108.623 180.909 108.469 180.95 108.301 180.95ZM108.301 176.279C108.043 176.279 107.821 176.189 107.637 176.007C107.452 175.822 107.361 175.601 107.364 175.342C107.361 175.086 107.452 174.868 107.637 174.686C107.821 174.501 108.043 174.409 108.301 174.409C108.551 174.409 108.769 174.501 108.953 174.686C109.141 174.868 109.236 175.086 109.239 175.342C109.236 175.512 109.191 175.669 109.103 175.811C109.017 175.953 108.904 176.066 108.762 176.152C108.623 176.237 108.469 176.279 108.301 176.279Z" fill="#E9F5FF"/>
<path d="M61.7614 206.856V192.311H70.483V193.873H63.5227V198.788H69.8295V200.351H63.5227V206.856H61.7614ZM73.2724 206.856V195.947H74.9485V206.856H73.2724ZM74.1246 194.129C73.7979 194.129 73.5162 194.018 73.2795 193.795C73.0475 193.573 72.9315 193.305 72.9315 192.993C72.9315 192.68 73.0475 192.413 73.2795 192.19C73.5162 191.967 73.7979 191.856 74.1246 191.856C74.4513 191.856 74.7307 191.967 74.9627 192.19C75.1995 192.413 75.3178 192.68 75.3178 192.993C75.3178 193.305 75.1995 193.573 74.9627 193.795C74.7307 194.018 74.4513 194.129 74.1246 194.129ZM79.6946 200.294V206.856H78.0185V195.947H79.6378V197.652H79.7798C80.0355 197.098 80.4238 196.653 80.9446 196.316C81.4654 195.976 82.1378 195.805 82.9616 195.805C83.7003 195.805 84.3466 195.957 84.9006 196.26C85.4545 196.558 85.8854 197.012 86.1932 197.623C86.5009 198.229 86.6548 198.996 86.6548 199.924V206.856H84.9787V200.038C84.9787 199.181 84.7562 198.513 84.3111 198.035C83.866 197.552 83.2552 197.311 82.4787 197.311C81.9437 197.311 81.4654 197.427 81.044 197.659C80.6274 197.891 80.2983 198.229 80.0568 198.674C79.8153 199.119 79.6946 199.659 79.6946 200.294ZM92.9279 207.112C92.2366 207.112 91.6093 206.982 91.0458 206.721C90.4824 206.456 90.0349 206.075 89.7035 205.578C89.372 205.076 89.2063 204.47 89.2063 203.76C89.2063 203.135 89.3294 202.628 89.5756 202.24C89.8219 201.847 90.1509 201.539 90.5629 201.316C90.9748 201.094 91.4293 200.928 91.9265 200.819C92.4284 200.706 92.9326 200.616 93.4393 200.549C94.1022 200.464 94.6396 200.4 95.0515 200.358C95.4682 200.31 95.7712 200.232 95.9606 200.123C96.1547 200.014 96.2518 199.825 96.2518 199.555V199.498C96.2518 198.797 96.06 198.253 95.6765 197.865C95.2977 197.476 94.7224 197.282 93.9506 197.282C93.1504 197.282 92.5231 197.458 92.0685 197.808C91.614 198.158 91.2944 198.532 91.1097 198.93L89.5188 198.362C89.8029 197.699 90.1817 197.183 90.6552 196.814C91.1334 196.44 91.6542 196.179 92.2177 196.032C92.7859 195.881 93.3446 195.805 93.8938 195.805C94.2442 195.805 94.6467 195.848 95.1012 195.933C95.5605 196.013 96.0032 196.181 96.4293 196.437C96.8602 196.693 97.2177 197.079 97.5018 197.595C97.7859 198.111 97.9279 198.802 97.9279 199.669V206.856H96.2518V205.379H96.1665C96.0529 205.616 95.8635 205.869 95.5984 206.139C95.3332 206.409 94.9805 206.638 94.5401 206.828C94.0998 207.017 93.5624 207.112 92.9279 207.112ZM93.1836 205.606C93.8465 205.606 94.4052 205.476 94.8597 205.216C95.319 204.955 95.6647 204.619 95.8967 204.207C96.1334 203.795 96.2518 203.362 96.2518 202.907V201.373C96.1808 201.458 96.0245 201.537 95.783 201.608C95.5463 201.674 95.2717 201.733 94.9592 201.785C94.6514 201.833 94.3507 201.875 94.0572 201.913C93.7683 201.946 93.534 201.975 93.354 201.998C92.9184 202.055 92.5112 202.147 92.1325 202.275C91.7584 202.398 91.4554 202.585 91.2234 202.836C90.9961 203.083 90.8825 203.419 90.8825 203.845C90.8825 204.427 91.0979 204.868 91.5288 205.166C91.9644 205.459 92.516 205.606 93.1836 205.606ZM102.663 200.294V206.856H100.987V195.947H102.607V197.652H102.749C103.004 197.098 103.393 196.653 103.913 196.316C104.434 195.976 105.107 195.805 105.93 195.805C106.669 195.805 107.315 195.957 107.869 196.26C108.423 196.558 108.854 197.012 109.162 197.623C109.47 198.229 109.624 198.996 109.624 199.924V206.856H107.947V200.038C107.947 199.181 107.725 198.513 107.28 198.035C106.835 197.552 106.224 197.311 105.447 197.311C104.912 197.311 104.434 197.427 104.013 197.659C103.596 197.891 103.267 198.229 103.026 198.674C102.784 199.119 102.663 199.659 102.663 200.294ZM117.118 207.083C116.096 207.083 115.215 206.842 114.476 206.359C113.738 205.876 113.169 205.211 112.772 204.363C112.374 203.516 112.175 202.547 112.175 201.458C112.175 200.351 112.379 199.373 112.786 198.525C113.198 197.673 113.771 197.008 114.505 196.529C115.243 196.047 116.105 195.805 117.09 195.805C117.857 195.805 118.548 195.947 119.164 196.231C119.779 196.515 120.283 196.913 120.676 197.424C121.069 197.936 121.313 198.532 121.408 199.214H119.732C119.604 198.717 119.32 198.277 118.88 197.893C118.444 197.505 117.857 197.311 117.118 197.311C116.465 197.311 115.892 197.481 115.4 197.822C114.912 198.158 114.531 198.634 114.256 199.25C113.986 199.86 113.851 200.578 113.851 201.402C113.851 202.244 113.984 202.978 114.249 203.603C114.519 204.228 114.898 204.714 115.385 205.059C115.878 205.405 116.455 205.578 117.118 205.578C117.554 205.578 117.949 205.502 118.304 205.351C118.659 205.199 118.96 204.981 119.206 204.697C119.453 204.413 119.628 204.072 119.732 203.674H121.408C121.313 204.318 121.079 204.898 120.705 205.414C120.336 205.926 119.846 206.333 119.235 206.636C118.629 206.934 117.923 207.083 117.118 207.083ZM123.858 206.856V195.947H125.534V206.856H123.858ZM124.711 194.129C124.384 194.129 124.102 194.018 123.865 193.795C123.633 193.573 123.517 193.305 123.517 192.993C123.517 192.68 123.633 192.413 123.865 192.19C124.102 191.967 124.384 191.856 124.711 191.856C125.037 191.856 125.317 191.967 125.549 192.19C125.785 192.413 125.904 192.68 125.904 192.993C125.904 193.305 125.785 193.573 125.549 193.795C125.317 194.018 125.037 194.129 124.711 194.129ZM131.815 207.112C131.123 207.112 130.496 206.982 129.933 206.721C129.369 206.456 128.922 206.075 128.59 205.578C128.259 205.076 128.093 204.47 128.093 203.76C128.093 203.135 128.216 202.628 128.462 202.24C128.709 201.847 129.038 201.539 129.45 201.316C129.862 201.094 130.316 200.928 130.813 200.819C131.315 200.706 131.819 200.616 132.326 200.549C132.989 200.464 133.526 200.4 133.938 200.358C134.355 200.31 134.658 200.232 134.847 200.123C135.041 200.014 135.138 199.825 135.138 199.555V199.498C135.138 198.797 134.947 198.253 134.563 197.865C134.184 197.476 133.609 197.282 132.837 197.282C132.037 197.282 131.41 197.458 130.955 197.808C130.501 198.158 130.181 198.532 129.996 198.93L128.406 198.362C128.69 197.699 129.068 197.183 129.542 196.814C130.02 196.44 130.541 196.179 131.104 196.032C131.673 195.881 132.231 195.805 132.781 195.805C133.131 195.805 133.533 195.848 133.988 195.933C134.447 196.013 134.89 196.181 135.316 196.437C135.747 196.693 136.104 197.079 136.388 197.595C136.673 198.111 136.815 198.802 136.815 199.669V206.856H135.138V205.379H135.053C134.94 205.616 134.75 205.869 134.485 206.139C134.22 206.409 133.867 206.638 133.427 206.828C132.987 207.017 132.449 207.112 131.815 207.112ZM132.07 205.606C132.733 205.606 133.292 205.476 133.746 205.216C134.206 204.955 134.551 204.619 134.783 204.207C135.02 203.795 135.138 203.362 135.138 202.907V201.373C135.067 201.458 134.911 201.537 134.67 201.608C134.433 201.674 134.158 201.733 133.846 201.785C133.538 201.833 133.237 201.875 132.944 201.913C132.655 201.946 132.421 201.975 132.241 201.998C131.805 202.055 131.398 202.147 131.019 202.275C130.645 202.398 130.342 202.585 130.11 202.836C129.883 203.083 129.769 203.419 129.769 203.845C129.769 204.427 129.985 204.868 130.415 205.166C130.851 205.459 131.403 205.606 132.07 205.606ZM141.55 192.311V206.856H139.874V192.311H141.55ZM150.472 206.856V192.311H159.194V193.873H152.234V198.788H158.54V200.351H152.234V206.856H150.472ZM161.866 206.856V195.947H163.485V197.595H163.599C163.798 197.055 164.158 196.617 164.679 196.281C165.199 195.945 165.787 195.777 166.44 195.777C166.563 195.777 166.717 195.779 166.902 195.784C167.086 195.788 167.226 195.796 167.321 195.805V197.51C167.264 197.495 167.134 197.474 166.93 197.446C166.731 197.413 166.52 197.396 166.298 197.396C165.768 197.396 165.294 197.507 164.877 197.73C164.466 197.948 164.139 198.251 163.897 198.639C163.661 199.022 163.542 199.46 163.542 199.953V206.856H161.866ZM172.518 207.112C171.826 207.112 171.199 206.982 170.636 206.721C170.072 206.456 169.625 206.075 169.293 205.578C168.962 205.076 168.796 204.47 168.796 203.76C168.796 203.135 168.919 202.628 169.165 202.24C169.412 201.847 169.741 201.539 170.153 201.316C170.565 201.094 171.019 200.928 171.516 200.819C172.018 200.706 172.522 200.616 173.029 200.549C173.692 200.464 174.229 200.4 174.641 200.358C175.058 200.31 175.361 200.232 175.55 200.123C175.745 200.014 175.842 199.825 175.842 199.555V199.498C175.842 198.797 175.65 198.253 175.266 197.865C174.888 197.476 174.312 197.282 173.54 197.282C172.74 197.282 172.113 197.458 171.658 197.808C171.204 198.158 170.884 198.532 170.7 198.93L169.109 198.362C169.393 197.699 169.772 197.183 170.245 196.814C170.723 196.44 171.244 196.179 171.808 196.032C172.376 195.881 172.934 195.805 173.484 195.805C173.834 195.805 174.237 195.848 174.691 195.933C175.15 196.013 175.593 196.181 176.019 196.437C176.45 196.693 176.808 197.079 177.092 197.595C177.376 198.111 177.518 198.802 177.518 199.669V206.856H175.842V205.379H175.756C175.643 205.616 175.453 205.869 175.188 206.139C174.923 206.409 174.57 206.638 174.13 206.828C173.69 207.017 173.152 207.112 172.518 207.112ZM172.773 205.606C173.436 205.606 173.995 205.476 174.45 205.216C174.909 204.955 175.254 204.619 175.487 204.207C175.723 203.795 175.842 203.362 175.842 202.907V201.373C175.771 201.458 175.614 201.537 175.373 201.608C175.136 201.674 174.862 201.733 174.549 201.785C174.241 201.833 173.941 201.875 173.647 201.913C173.358 201.946 173.124 201.975 172.944 201.998C172.508 202.055 172.101 202.147 171.722 202.275C171.348 202.398 171.045 202.585 170.813 202.836C170.586 203.083 170.472 203.419 170.472 203.845C170.472 204.427 170.688 204.868 171.119 205.166C171.554 205.459 172.106 205.606 172.773 205.606ZM187.452 202.396V195.947H189.128V206.856H187.452V205.01H187.338C187.083 205.564 186.685 206.035 186.145 206.423C185.605 206.806 184.924 206.998 184.1 206.998C183.418 206.998 182.812 206.849 182.282 206.551C181.751 206.248 181.335 205.793 181.032 205.187C180.729 204.576 180.577 203.807 180.577 202.879V195.947H182.253V202.765C182.253 203.561 182.476 204.195 182.921 204.669C183.371 205.142 183.944 205.379 184.64 205.379C185.056 205.379 185.48 205.272 185.911 205.059C186.346 204.846 186.711 204.52 187.005 204.079C187.303 203.639 187.452 203.078 187.452 202.396ZM196.317 207.083C195.408 207.083 194.606 206.854 193.91 206.395C193.214 205.931 192.669 205.277 192.276 204.434C191.883 203.587 191.687 202.585 191.687 201.43C191.687 200.284 191.883 199.29 192.276 198.447C192.669 197.604 193.216 196.953 193.917 196.494C194.618 196.035 195.427 195.805 196.346 195.805C197.056 195.805 197.617 195.923 198.029 196.16C198.446 196.392 198.763 196.657 198.981 196.956C199.203 197.249 199.376 197.491 199.499 197.68H199.641V192.311H201.317V206.856H199.698V205.18H199.499C199.376 205.379 199.201 205.63 198.974 205.933C198.746 206.231 198.422 206.499 198.001 206.735C197.579 206.967 197.018 207.083 196.317 207.083ZM196.545 205.578C197.217 205.578 197.785 205.403 198.249 205.052C198.713 204.697 199.066 204.207 199.308 203.582C199.549 202.952 199.67 202.226 199.67 201.402C199.67 200.587 199.551 199.875 199.315 199.264C199.078 198.648 198.728 198.17 198.263 197.829C197.799 197.484 197.227 197.311 196.545 197.311C195.835 197.311 195.243 197.493 194.769 197.858C194.3 198.217 193.948 198.708 193.711 199.328C193.479 199.943 193.363 200.635 193.363 201.402C193.363 202.178 193.481 202.884 193.718 203.518C193.96 204.148 194.315 204.65 194.783 205.024C195.257 205.393 195.844 205.578 196.545 205.578ZM207.12 204.868L207.006 205.635C206.926 206.174 206.803 206.752 206.637 207.368C206.476 207.983 206.308 208.563 206.133 209.108C205.958 209.652 205.813 210.085 205.7 210.407H204.421C204.483 210.104 204.563 209.704 204.663 209.207C204.762 208.71 204.862 208.154 204.961 207.538C205.065 206.927 205.15 206.302 205.217 205.663L205.302 204.868H207.12ZM220.566 206.856H216.078V192.311H220.765C222.176 192.311 223.384 192.602 224.387 193.184C225.391 193.762 226.161 194.593 226.696 195.677C227.231 196.757 227.498 198.049 227.498 199.555C227.498 201.07 227.228 202.375 226.689 203.468C226.149 204.557 225.363 205.396 224.331 205.983C223.298 206.565 222.044 206.856 220.566 206.856ZM217.839 205.294H220.453C221.655 205.294 222.652 205.062 223.443 204.598C224.234 204.134 224.823 203.473 225.211 202.616C225.6 201.759 225.794 200.739 225.794 199.555C225.794 198.381 225.602 197.37 225.218 196.522C224.835 195.67 224.262 195.017 223.5 194.562C222.737 194.103 221.788 193.873 220.652 193.873H217.839V205.294ZM233.436 207.112C232.744 207.112 232.117 206.982 231.554 206.721C230.99 206.456 230.543 206.075 230.211 205.578C229.88 205.076 229.714 204.47 229.714 203.76C229.714 203.135 229.837 202.628 230.083 202.24C230.33 201.847 230.659 201.539 231.071 201.316C231.483 201.094 231.937 200.928 232.434 200.819C232.936 200.706 233.44 200.616 233.947 200.549C234.61 200.464 235.147 200.4 235.559 200.358C235.976 200.31 236.279 200.232 236.468 200.123C236.663 200.014 236.76 199.825 236.76 199.555V199.498C236.76 198.797 236.568 198.253 236.184 197.865C235.806 197.476 235.23 197.282 234.458 197.282C233.658 197.282 233.031 197.458 232.576 197.808C232.122 198.158 231.802 198.532 231.618 198.93L230.027 198.362C230.311 197.699 230.69 197.183 231.163 196.814C231.641 196.44 232.162 196.179 232.725 196.032C233.294 195.881 233.852 195.805 234.402 195.805C234.752 195.805 235.154 195.848 235.609 195.933C236.068 196.013 236.511 196.181 236.937 196.437C237.368 196.693 237.725 197.079 238.01 197.595C238.294 198.111 238.436 198.802 238.436 199.669V206.856H236.76V205.379H236.674C236.561 205.616 236.371 205.869 236.106 206.139C235.841 206.409 235.488 206.638 235.048 206.828C234.608 207.017 234.07 207.112 233.436 207.112ZM233.691 205.606C234.354 205.606 234.913 205.476 235.368 205.216C235.827 204.955 236.172 204.619 236.404 204.207C236.641 203.795 236.76 203.362 236.76 202.907V201.373C236.689 201.458 236.532 201.537 236.291 201.608C236.054 201.674 235.779 201.733 235.467 201.785C235.159 201.833 234.859 201.875 234.565 201.913C234.276 201.946 234.042 201.975 233.862 201.998C233.426 202.055 233.019 202.147 232.64 202.275C232.266 202.398 231.963 202.585 231.731 202.836C231.504 203.083 231.39 203.419 231.39 203.845C231.39 204.427 231.606 204.868 232.037 205.166C232.472 205.459 233.024 205.606 233.691 205.606ZM246.239 195.947V197.368H240.586V195.947H246.239ZM242.234 193.333H243.91V203.731C243.91 204.205 243.978 204.56 244.116 204.797C244.258 205.029 244.438 205.185 244.656 205.265C244.878 205.341 245.112 205.379 245.359 205.379C245.543 205.379 245.695 205.369 245.813 205.351C245.932 205.327 246.026 205.308 246.097 205.294L246.438 206.799C246.325 206.842 246.166 206.885 245.962 206.927C245.759 206.975 245.501 206.998 245.188 206.998C244.715 206.998 244.251 206.896 243.796 206.693C243.346 206.489 242.972 206.179 242.674 205.762C242.38 205.346 242.234 204.82 242.234 204.186V193.333ZM251.971 207.112C251.28 207.112 250.652 206.982 250.089 206.721C249.525 206.456 249.078 206.075 248.746 205.578C248.415 205.076 248.249 204.47 248.249 203.76C248.249 203.135 248.372 202.628 248.619 202.24C248.865 201.847 249.194 201.539 249.606 201.316C250.018 201.094 250.472 200.928 250.969 200.819C251.471 200.706 251.976 200.616 252.482 200.549C253.145 200.464 253.683 200.4 254.094 200.358C254.511 200.31 254.814 200.232 255.004 200.123C255.198 200.014 255.295 199.825 255.295 199.555V199.498C255.295 198.797 255.103 198.253 254.719 197.865C254.341 197.476 253.765 197.282 252.994 197.282C252.193 197.282 251.566 197.458 251.112 197.808C250.657 198.158 250.337 198.532 250.153 198.93L248.562 198.362C248.846 197.699 249.225 197.183 249.698 196.814C250.176 196.44 250.697 196.179 251.261 196.032C251.829 195.881 252.388 195.805 252.937 195.805C253.287 195.805 253.69 195.848 254.144 195.933C254.603 196.013 255.046 196.181 255.472 196.437C255.903 196.693 256.261 197.079 256.545 197.595C256.829 198.111 256.971 198.802 256.971 199.669V206.856H255.295V205.379H255.21C255.096 205.616 254.906 205.869 254.641 206.139C254.376 206.409 254.023 206.638 253.583 206.828C253.143 207.017 252.605 207.112 251.971 207.112ZM252.227 205.606C252.889 205.606 253.448 205.476 253.903 205.216C254.362 204.955 254.708 204.619 254.94 204.207C255.176 203.795 255.295 203.362 255.295 202.907V201.373C255.224 201.458 255.067 201.537 254.826 201.608C254.589 201.674 254.315 201.733 254.002 201.785C253.694 201.833 253.394 201.875 253.1 201.913C252.811 201.946 252.577 201.975 252.397 201.998C251.961 202.055 251.554 202.147 251.175 202.275C250.801 202.398 250.498 202.585 250.266 202.836C250.039 203.083 249.925 203.419 249.925 203.845C249.925 204.427 250.141 204.868 250.572 205.166C251.007 205.459 251.559 205.606 252.227 205.606ZM265.882 206.856V192.311H267.559V197.68H267.701C267.824 197.491 267.994 197.249 268.212 196.956C268.435 196.657 268.752 196.392 269.164 196.16C269.58 195.923 270.144 195.805 270.854 195.805C271.773 195.805 272.582 196.035 273.283 196.494C273.984 196.953 274.531 197.604 274.924 198.447C275.317 199.29 275.513 200.284 275.513 201.43C275.513 202.585 275.317 203.587 274.924 204.434C274.531 205.277 273.986 205.931 273.29 206.395C272.594 206.854 271.792 207.083 270.882 207.083C270.182 207.083 269.621 206.967 269.199 206.735C268.778 206.499 268.453 206.231 268.226 205.933C267.999 205.63 267.824 205.379 267.701 205.18H267.502V206.856H265.882ZM267.53 201.402C267.53 202.226 267.651 202.952 267.892 203.582C268.134 204.207 268.487 204.697 268.951 205.052C269.415 205.403 269.983 205.578 270.655 205.578C271.356 205.578 271.941 205.393 272.409 205.024C272.883 204.65 273.238 204.148 273.475 203.518C273.716 202.884 273.837 202.178 273.837 201.402C273.837 200.635 273.719 199.943 273.482 199.328C273.25 198.708 272.897 198.217 272.424 197.858C271.955 197.493 271.365 197.311 270.655 197.311C269.973 197.311 269.4 197.484 268.936 197.829C268.472 198.17 268.122 198.648 267.885 199.264C267.649 199.875 267.53 200.587 267.53 201.402ZM278.077 206.856V195.947H279.696V197.595H279.81C280.009 197.055 280.369 196.617 280.89 196.281C281.41 195.945 281.998 195.777 282.651 195.777C282.774 195.777 282.928 195.779 283.113 195.784C283.297 195.788 283.437 195.796 283.532 195.805V197.51C283.475 197.495 283.345 197.474 283.141 197.446C282.942 197.413 282.731 197.396 282.509 197.396C281.979 197.396 281.505 197.507 281.088 197.73C280.676 197.948 280.35 198.251 280.108 198.639C279.872 199.022 279.753 199.46 279.753 199.953V206.856H278.077ZM289.76 207.083C288.709 207.083 287.802 206.851 287.04 206.387C286.283 205.919 285.698 205.265 285.286 204.427C284.879 203.584 284.675 202.604 284.675 201.487C284.675 200.369 284.879 199.385 285.286 198.532C285.698 197.675 286.271 197.008 287.005 196.529C287.743 196.047 288.605 195.805 289.59 195.805C290.158 195.805 290.719 195.9 291.273 196.089C291.827 196.279 292.331 196.586 292.786 197.012C293.24 197.434 293.603 197.993 293.873 198.689C294.142 199.385 294.277 200.242 294.277 201.26V201.97H285.868V200.521H292.573C292.573 199.905 292.45 199.356 292.203 198.873C291.962 198.39 291.616 198.009 291.167 197.73C290.721 197.45 290.196 197.311 289.59 197.311C288.922 197.311 288.345 197.476 287.857 197.808C287.374 198.135 287.002 198.561 286.742 199.086C286.481 199.612 286.351 200.175 286.351 200.777V201.743C286.351 202.566 286.493 203.265 286.777 203.838C287.066 204.406 287.466 204.839 287.978 205.137C288.489 205.431 289.083 205.578 289.76 205.578C290.201 205.578 290.598 205.516 290.953 205.393C291.313 205.265 291.623 205.076 291.884 204.825C292.144 204.569 292.346 204.252 292.488 203.873L294.107 204.328C293.936 204.877 293.65 205.36 293.248 205.777C292.845 206.189 292.348 206.511 291.756 206.743C291.164 206.97 290.499 207.083 289.76 207.083ZM300.037 207.112C299.346 207.112 298.719 206.982 298.155 206.721C297.592 206.456 297.144 206.075 296.813 205.578C296.481 205.076 296.316 204.47 296.316 203.76C296.316 203.135 296.439 202.628 296.685 202.24C296.931 201.847 297.26 201.539 297.672 201.316C298.084 201.094 298.539 200.928 299.036 200.819C299.538 200.706 300.042 200.616 300.549 200.549C301.212 200.464 301.749 200.4 302.161 200.358C302.578 200.31 302.881 200.232 303.07 200.123C303.264 200.014 303.361 199.825 303.361 199.555V199.498C303.361 198.797 303.169 198.253 302.786 197.865C302.407 197.476 301.832 197.282 301.06 197.282C300.26 197.282 299.632 197.458 299.178 197.808C298.723 198.158 298.404 198.532 298.219 198.93L296.628 198.362C296.912 197.699 297.291 197.183 297.765 196.814C298.243 196.44 298.764 196.179 299.327 196.032C299.895 195.881 300.454 195.805 301.003 195.805C301.354 195.805 301.756 195.848 302.211 195.933C302.67 196.013 303.113 196.181 303.539 196.437C303.97 196.693 304.327 197.079 304.611 197.595C304.895 198.111 305.037 198.802 305.037 199.669V206.856H303.361V205.379H303.276C303.162 205.616 302.973 205.869 302.708 206.139C302.443 206.409 302.09 206.638 301.65 206.828C301.209 207.017 300.672 207.112 300.037 207.112ZM300.293 205.606C300.956 205.606 301.515 205.476 301.969 205.216C302.428 204.955 302.774 204.619 303.006 204.207C303.243 203.795 303.361 203.362 303.361 202.907V201.373C303.29 201.458 303.134 201.537 302.892 201.608C302.656 201.674 302.381 201.733 302.069 201.785C301.761 201.833 301.46 201.875 301.167 201.913C300.878 201.946 300.643 201.975 300.463 201.998C300.028 202.055 299.621 202.147 299.242 202.275C298.868 202.398 298.565 202.585 298.333 202.836C298.105 203.083 297.992 203.419 297.992 203.845C297.992 204.427 298.207 204.868 298.638 205.166C299.074 205.459 299.625 205.606 300.293 205.606ZM312.528 207.083C311.506 207.083 310.625 206.842 309.886 206.359C309.148 205.876 308.58 205.211 308.182 204.363C307.784 203.516 307.585 202.547 307.585 201.458C307.585 200.351 307.789 199.373 308.196 198.525C308.608 197.673 309.181 197.008 309.915 196.529C310.653 196.047 311.515 195.805 312.5 195.805C313.267 195.805 313.958 195.947 314.574 196.231C315.189 196.515 315.694 196.913 316.087 197.424C316.48 197.936 316.723 198.532 316.818 199.214H315.142C315.014 198.717 314.73 198.277 314.29 197.893C313.854 197.505 313.267 197.311 312.528 197.311C311.875 197.311 311.302 197.481 310.81 197.822C310.322 198.158 309.941 198.634 309.666 199.25C309.396 199.86 309.261 200.578 309.261 201.402C309.261 202.244 309.394 202.978 309.659 203.603C309.929 204.228 310.308 204.714 310.795 205.059C311.288 205.405 311.866 205.578 312.528 205.578C312.964 205.578 313.359 205.502 313.714 205.351C314.07 205.199 314.37 204.981 314.616 204.697C314.863 204.413 315.038 204.072 315.142 203.674H316.818C316.723 204.318 316.489 204.898 316.115 205.414C315.746 205.926 315.256 206.333 314.645 206.636C314.039 206.934 313.333 207.083 312.528 207.083ZM320.945 200.294V206.856H319.268V192.311H320.945V197.652H321.087C321.342 197.088 321.726 196.641 322.237 196.309C322.753 195.973 323.44 195.805 324.297 195.805C325.04 195.805 325.691 195.954 326.25 196.253C326.809 196.546 327.242 196.998 327.55 197.609C327.862 198.215 328.018 198.987 328.018 199.924V206.856H326.342V200.038C326.342 199.172 326.117 198.502 325.668 198.028C325.223 197.55 324.605 197.311 323.814 197.311C323.265 197.311 322.772 197.427 322.337 197.659C321.906 197.891 321.565 198.229 321.314 198.674C321.068 199.119 320.945 199.659 320.945 200.294Z" fill="#E9F5FF"/>
<path d="M60.4773 240.454V239.129H67.4403V240.454H64.7429V247.856H63.1747V240.454H60.4773ZM68.0348 247.856V241.311H69.5305V242.402H69.5987C69.718 242.024 69.9226 241.733 70.2124 241.528C70.505 241.321 70.8388 241.217 71.2138 241.217C71.299 241.217 71.3942 241.221 71.4993 241.23C71.6072 241.235 71.6967 241.245 71.7678 241.26V242.679C71.7024 242.656 71.5987 242.636 71.4567 242.619C71.3175 242.599 71.1825 242.589 71.0518 242.589C70.7706 242.589 70.5178 242.65 70.2933 242.772C70.0717 242.892 69.897 243.058 69.7692 243.271C69.6413 243.484 69.5774 243.73 69.5774 244.008V247.856H68.0348ZM76.9645 245.103V241.311H78.5071V247.856H77.0114V246.693H76.9432C76.7955 247.059 76.5526 247.359 76.2145 247.592C75.8793 247.825 75.4659 247.941 74.9744 247.941C74.5455 247.941 74.1662 247.846 73.8366 247.656C73.5099 247.463 73.2543 247.183 73.0696 246.816C72.8849 246.447 72.7926 246.001 72.7926 245.478V241.311H74.3352V245.24C74.3352 245.654 74.4489 245.984 74.6761 246.228C74.9034 246.473 75.2017 246.595 75.571 246.595C75.7983 246.595 76.0185 246.539 76.2315 246.429C76.4446 246.318 76.6193 246.153 76.7557 245.934C76.8949 245.713 76.9645 245.436 76.9645 245.103ZM85.2667 243.041L83.8604 243.194C83.8207 243.052 83.7511 242.919 83.6516 242.794C83.555 242.669 83.4244 242.568 83.2596 242.491C83.0948 242.414 82.8931 242.376 82.6545 242.376C82.3335 242.376 82.0636 242.446 81.8448 242.585C81.6289 242.724 81.5224 242.904 81.5252 243.126C81.5224 243.316 81.592 243.471 81.734 243.591C81.8789 243.71 82.1175 243.808 82.4499 243.885L83.5664 244.123C84.1857 244.257 84.646 244.468 84.9471 244.758C85.2511 245.048 85.4045 245.427 85.4073 245.896C85.4045 246.308 85.2837 246.672 85.0451 246.987C84.8093 247.299 84.4812 247.544 84.0607 247.72C83.6403 247.896 83.1573 247.984 82.6119 247.984C81.8107 247.984 81.1658 247.816 80.6772 247.481C80.1886 247.143 79.8974 246.673 79.8036 246.071L81.3079 245.926C81.3761 246.221 81.521 246.444 81.7425 246.595C81.9641 246.745 82.2525 246.821 82.6076 246.821C82.9741 246.821 83.2681 246.745 83.4897 246.595C83.7141 246.444 83.8263 246.258 83.8263 246.037C83.8263 245.849 83.7539 245.694 83.609 245.572C83.467 245.45 83.2454 245.356 82.9442 245.291L81.8278 245.056C81.1999 244.926 80.7354 244.706 80.4343 244.396C80.1332 244.083 79.984 243.689 79.9869 243.211C79.984 242.808 80.0934 242.458 80.315 242.163C80.5394 241.865 80.8505 241.635 81.2482 241.473C81.6488 241.308 82.1104 241.226 82.6332 241.226C83.4002 241.226 84.0039 241.389 84.4442 241.716C84.8874 242.042 85.1616 242.484 85.2667 243.041ZM89.9478 241.311V242.504H86.185V241.311H89.9478ZM87.114 239.743H88.6566V245.887C88.6566 246.095 88.6879 246.254 88.7504 246.365C88.8157 246.473 88.9009 246.547 89.006 246.586C89.1112 246.626 89.2276 246.646 89.3555 246.646C89.4521 246.646 89.5401 246.639 89.6197 246.625C89.7021 246.61 89.7646 246.598 89.8072 246.586L90.0671 247.792C89.9847 247.821 89.8668 247.852 89.7134 247.886C89.5629 247.92 89.3782 247.94 89.1594 247.946C88.7731 247.957 88.4251 247.899 88.1154 247.771C87.8058 247.64 87.56 247.439 87.3782 247.166C87.1992 246.893 87.1112 246.552 87.114 246.143V239.743ZM99.0256 241.528C98.9858 241.156 98.8182 240.866 98.5227 240.659C98.2301 240.451 97.8494 240.348 97.3807 240.348C97.0511 240.348 96.7685 240.397 96.5327 240.497C96.2969 240.596 96.1165 240.731 95.9915 240.902C95.8665 241.072 95.8026 241.267 95.7997 241.485C95.7997 241.667 95.8409 241.825 95.9233 241.958C96.0085 242.092 96.1236 242.206 96.2685 242.299C96.4134 242.39 96.5739 242.467 96.75 242.529C96.9261 242.592 97.1037 242.645 97.2827 242.687L98.1009 242.892C98.4304 242.968 98.7472 243.072 99.0511 243.203C99.358 243.333 99.6321 243.498 99.8736 243.697C100.118 243.896 100.311 244.136 100.453 244.417C100.595 244.699 100.666 245.028 100.666 245.406C100.666 245.917 100.536 246.368 100.274 246.757C100.013 247.143 99.6349 247.446 99.1406 247.664C98.6491 247.88 98.054 247.988 97.3551 247.988C96.6761 247.988 96.0866 247.883 95.5866 247.673C95.0895 247.463 94.7003 247.156 94.419 246.753C94.1406 246.349 93.9901 245.858 93.9673 245.278H95.5227C95.5455 245.582 95.6392 245.835 95.804 246.037C95.9688 246.238 96.1832 246.389 96.4474 246.488C96.7145 246.588 97.0128 246.637 97.3423 246.637C97.6861 246.637 97.9872 246.586 98.2457 246.484C98.5071 246.379 98.7116 246.234 98.8594 246.049C99.0071 245.862 99.0824 245.643 99.0852 245.393C99.0824 245.166 99.0156 244.978 98.8849 244.831C98.7543 244.68 98.571 244.555 98.3352 244.456C98.1023 244.353 97.8295 244.262 97.517 244.183L96.5241 243.927C95.8054 243.743 95.2372 243.463 94.8196 243.088C94.4048 242.71 94.1974 242.208 94.1974 241.583C94.1974 241.069 94.3366 240.619 94.6151 240.233C94.8963 239.846 95.2784 239.547 95.7614 239.333C96.2443 239.118 96.7912 239.01 97.402 239.01C98.0213 239.01 98.5639 239.118 99.0298 239.333C99.4986 239.547 99.8665 239.843 100.134 240.224C100.401 240.602 100.538 241.037 100.547 241.528H99.0256ZM104.863 247.984C104.209 247.984 103.648 247.841 103.179 247.554C102.713 247.267 102.354 246.87 102.101 246.365C101.851 245.856 101.726 245.271 101.726 244.609C101.726 243.944 101.854 243.358 102.11 242.849C102.365 242.338 102.726 241.94 103.192 241.656C103.661 241.369 104.215 241.226 104.854 241.226C105.385 241.226 105.855 241.324 106.265 241.52C106.676 241.713 107.005 241.987 107.249 242.342C107.493 242.694 107.632 243.106 107.667 243.578H106.192C106.132 243.262 105.99 243 105.766 242.789C105.544 242.576 105.248 242.47 104.875 242.47C104.56 242.47 104.283 242.555 104.044 242.726C103.806 242.893 103.62 243.135 103.486 243.45C103.355 243.765 103.29 244.143 103.29 244.583C103.29 245.029 103.355 245.413 103.486 245.734C103.617 246.052 103.8 246.298 104.036 246.471C104.275 246.642 104.554 246.727 104.875 246.727C105.103 246.727 105.306 246.684 105.485 246.599C105.667 246.511 105.819 246.385 105.941 246.22C106.063 246.055 106.147 245.855 106.192 245.619H107.667C107.63 246.082 107.493 246.493 107.257 246.851C107.022 247.206 106.701 247.484 106.294 247.686C105.888 247.885 105.411 247.984 104.863 247.984ZM111.788 247.984C111.149 247.984 110.595 247.843 110.126 247.562C109.658 247.281 109.294 246.887 109.036 246.382C108.78 245.876 108.652 245.285 108.652 244.609C108.652 243.933 108.78 243.341 109.036 242.832C109.294 242.324 109.658 241.929 110.126 241.647C110.595 241.366 111.149 241.226 111.788 241.226C112.428 241.226 112.982 241.366 113.45 241.647C113.919 241.929 114.281 242.324 114.537 242.832C114.795 243.341 114.925 243.933 114.925 244.609C114.925 245.285 114.795 245.876 114.537 246.382C114.281 246.887 113.919 247.281 113.45 247.562C112.982 247.843 112.428 247.984 111.788 247.984ZM111.797 246.748C112.143 246.748 112.433 246.653 112.666 246.463C112.899 246.27 113.072 246.011 113.186 245.687C113.303 245.363 113.361 245.003 113.361 244.605C113.361 244.204 113.303 243.842 113.186 243.518C113.072 243.191 112.899 242.931 112.666 242.738C112.433 242.545 112.143 242.449 111.797 242.449C111.442 242.449 111.146 242.545 110.911 242.738C110.678 242.931 110.503 243.191 110.386 243.518C110.273 243.842 110.216 244.204 110.216 244.605C110.216 245.003 110.273 245.363 110.386 245.687C110.503 246.011 110.678 246.27 110.911 246.463C111.146 246.653 111.442 246.748 111.797 246.748ZM116.234 247.856V241.311H117.73V242.402H117.798C117.917 242.024 118.122 241.733 118.412 241.528C118.704 241.321 119.038 241.217 119.413 241.217C119.498 241.217 119.593 241.221 119.699 241.23C119.806 241.235 119.896 241.245 119.967 241.26V242.679C119.902 242.656 119.798 242.636 119.656 242.619C119.517 242.599 119.382 242.589 119.251 242.589C118.97 242.589 118.717 242.65 118.493 242.772C118.271 242.892 118.096 243.058 117.968 243.271C117.841 243.484 117.777 243.73 117.777 244.008V247.856H116.234ZM123.62 247.984C122.964 247.984 122.397 247.848 121.92 247.575C121.445 247.299 121.08 246.91 120.825 246.407C120.569 245.902 120.441 245.306 120.441 244.622C120.441 243.949 120.569 243.358 120.825 242.849C121.083 242.338 121.444 241.94 121.907 241.656C122.37 241.369 122.914 241.226 123.539 241.226C123.942 241.226 124.323 241.291 124.681 241.422C125.042 241.549 125.36 241.748 125.636 242.018C125.914 242.288 126.133 242.632 126.292 243.049C126.451 243.464 126.531 243.958 126.531 244.532V245.005H121.165V243.966H125.052C125.049 243.67 124.985 243.407 124.86 243.177C124.735 242.944 124.56 242.761 124.336 242.628C124.114 242.494 123.856 242.427 123.56 242.427C123.245 242.427 122.968 242.504 122.729 242.657C122.491 242.808 122.305 243.007 122.171 243.254C122.04 243.498 121.974 243.767 121.971 244.059V244.967C121.971 245.348 122.04 245.674 122.18 245.947C122.319 246.217 122.513 246.424 122.763 246.569C123.013 246.711 123.306 246.782 123.641 246.782C123.866 246.782 124.069 246.751 124.251 246.689C124.433 246.623 124.59 246.528 124.724 246.403C124.857 246.278 124.958 246.123 125.026 245.939L126.467 246.101C126.376 246.481 126.202 246.814 125.947 247.098C125.694 247.379 125.37 247.598 124.975 247.754C124.58 247.907 124.129 247.984 123.62 247.984ZM128.786 247.95C128.527 247.95 128.306 247.859 128.121 247.677C127.936 247.495 127.846 247.274 127.848 247.012C127.846 246.757 127.936 246.538 128.121 246.356C128.306 246.174 128.527 246.083 128.786 246.083C129.036 246.083 129.253 246.174 129.438 246.356C129.625 246.538 129.721 246.757 129.723 247.012C129.721 247.186 129.675 247.343 129.587 247.485C129.502 247.628 129.388 247.741 129.246 247.826C129.107 247.909 128.953 247.95 128.786 247.95ZM128.786 243.279C128.527 243.279 128.306 243.189 128.121 243.007C127.936 242.822 127.846 242.601 127.848 242.342C127.846 242.086 127.936 241.868 128.121 241.686C128.306 241.501 128.527 241.409 128.786 241.409C129.036 241.409 129.253 241.501 129.438 241.686C129.625 241.868 129.721 242.086 129.723 242.342C129.721 242.512 129.675 242.669 129.587 242.811C129.502 242.953 129.388 243.066 129.246 243.152C129.107 243.237 128.953 243.279 128.786 243.279Z" fill="#E9F5FF"/>
<g clip-path="url(#clip0_2022_272)">
<rect x="60" y="254.856" width="335" height="12" rx="6" fill="#E9F5FF"/>
<rect x="60" y="254.856" width="41" height="12" rx="6" fill="#0064B2"/>
<path d="M217.31 257.583V264.856H216.429V258.507H216.386L214.611 259.686V258.791L216.429 257.583H217.31ZM221.958 257.583V264.856H221.077V258.507H221.035L219.259 259.686V258.791L221.077 257.583H221.958ZM224.245 264.913C224.07 264.913 223.92 264.85 223.794 264.725C223.669 264.599 223.606 264.449 223.606 264.274C223.606 264.099 223.669 263.948 223.794 263.823C223.92 263.697 224.07 263.635 224.245 263.635C224.42 263.635 224.571 263.697 224.696 263.823C224.821 263.948 224.884 264.099 224.884 264.274C224.884 264.39 224.855 264.496 224.795 264.593C224.739 264.69 224.662 264.769 224.565 264.828C224.47 264.885 224.363 264.913 224.245 264.913ZM228.5 264.956C228.084 264.956 227.708 264.873 227.374 264.707C227.041 264.541 226.773 264.314 226.572 264.025C226.371 263.736 226.261 263.407 226.242 263.038H227.094C227.127 263.367 227.276 263.639 227.541 263.855C227.809 264.068 228.128 264.174 228.5 264.174C228.798 264.174 229.064 264.105 229.296 263.965C229.53 263.825 229.713 263.633 229.846 263.39C229.981 263.143 230.048 262.865 230.048 262.555C230.048 262.238 229.979 261.955 229.839 261.706C229.702 261.455 229.512 261.258 229.271 261.113C229.029 260.969 228.753 260.896 228.443 260.893C228.221 260.891 227.992 260.925 227.758 260.996C227.524 261.065 227.331 261.154 227.179 261.262L226.355 261.163L226.796 257.583H230.574V258.365H227.534L227.279 260.51H227.321C227.47 260.391 227.657 260.293 227.882 260.215C228.107 260.137 228.342 260.098 228.585 260.098C229.03 260.098 229.427 260.204 229.775 260.417C230.125 260.628 230.4 260.917 230.599 261.284C230.8 261.651 230.901 262.07 230.901 262.541C230.901 263.005 230.797 263.419 230.588 263.784C230.382 264.146 230.098 264.432 229.736 264.643C229.374 264.851 228.962 264.956 228.5 264.956ZM236.019 263.493V263.109C236.019 262.844 236.073 262.601 236.182 262.381C236.293 262.159 236.454 261.981 236.665 261.848C236.878 261.713 237.136 261.646 237.439 261.646C237.747 261.646 238.005 261.713 238.213 261.848C238.422 261.981 238.579 262.159 238.686 262.381C238.792 262.601 238.846 262.844 238.846 263.109V263.493C238.846 263.758 238.791 264.002 238.682 264.224C238.576 264.444 238.417 264.622 238.206 264.757C237.998 264.889 237.742 264.956 237.439 264.956C237.132 264.956 236.872 264.889 236.662 264.757C236.451 264.622 236.291 264.444 236.182 264.224C236.073 264.002 236.019 263.758 236.019 263.493ZM236.743 263.109V263.493C236.743 263.713 236.795 263.91 236.9 264.086C237.004 264.258 237.184 264.345 237.439 264.345C237.688 264.345 237.863 264.258 237.965 264.086C238.069 263.91 238.121 263.713 238.121 263.493V263.109C238.121 262.889 238.071 262.692 237.972 262.52C237.873 262.344 237.695 262.257 237.439 262.257C237.191 262.257 237.012 262.344 236.903 262.52C236.797 262.692 236.743 262.889 236.743 263.109ZM232.397 259.331V258.947C232.397 258.682 232.451 258.439 232.56 258.219C232.671 257.997 232.832 257.819 233.043 257.686C233.256 257.552 233.514 257.484 233.817 257.484C234.125 257.484 234.383 257.552 234.591 257.686C234.8 257.819 234.957 257.997 235.064 258.219C235.17 258.439 235.223 258.682 235.223 258.947V259.331C235.223 259.596 235.169 259.84 235.06 260.062C234.953 260.282 234.795 260.46 234.584 260.595C234.376 260.727 234.12 260.794 233.817 260.794C233.509 260.794 233.25 260.727 233.039 260.595C232.829 260.46 232.669 260.282 232.56 260.062C232.451 259.84 232.397 259.596 232.397 259.331ZM233.121 258.947V259.331C233.121 259.551 233.173 259.748 233.277 259.924C233.382 260.096 233.561 260.183 233.817 260.183C234.066 260.183 234.241 260.096 234.343 259.924C234.447 259.748 234.499 259.551 234.499 259.331V258.947C234.499 258.727 234.449 258.53 234.35 258.358C234.25 258.182 234.073 258.095 233.817 258.095C233.569 258.095 233.39 258.182 233.281 258.358C233.174 258.53 233.121 258.727 233.121 258.947ZM232.667 264.856L237.667 257.583H238.476L233.476 264.856H232.667Z" fill="#343A40"/>
</g>
</g>
<defs>
<filter id="filter0_d_2022_272" x="0" y="0.856201" width="455" height="326" filterUnits="userSpaceOnUse" color-interpolation-filters="sRGB">
<feFlood flood-opacity="0" result="BackgroundImageFix"/>
<feColorMatrix in="SourceAlpha" type="matrix" values="0 0 0 0 0 0 0 0 0 0 0 0 0 0 0 0 0 0 127 0" result="hardAlpha"/>
<feMorphology radius="12" operator="erode" in="SourceAlpha" result="effect1_dropShadow_2022_272"/>
<feOffset/>
<feGaussianBlur stdDeviation="24"/>
<feComposite in2="hardAlpha" operator="out"/>
<feColorMatrix type="matrix" values="0 0 0 0 0.203922 0 0 0 0 0.2 0 0 0 0 0.188235 0 0 0 0.15 0"/>
<feBlend mode="normal" in2="BackgroundImageFix" result="effect1_dropShadow_2022_272"/>
<feBlend mode="normal" in="SourceGraphic" in2="effect1_dropShadow_2022_272" result="shape"/>
</filter>
<clipPath id="clip0_2022_272">
<rect x="60" y="254.856" width="335" height="12" rx="6" fill="white"/>
</clipPath>
</defs>
</svg>
