<svg width="363" height="270" viewBox="0 0 363 270" fill="none" xmlns="http://www.w3.org/2000/svg">
<g filter="url(#filter0_d_2022_383)">
<rect x="36" y="36.8562" width="291" height="197" rx="20" fill="#E9F5FF"/>
<rect x="36.5" y="37.3562" width="290" height="196" rx="19.5" stroke="#0064B2"/>
<path d="M74.2282 78.2662L74.3319 77.78L73.8954 77.5419L68.7854 74.7549L68.3492 74.517L67.9965 74.867C67.5995 75.2612 67.0946 75.529 66.5455 75.6366C65.9965 75.7442 65.4279 75.6869 64.9114 75.4718C64.3949 75.2568 63.9536 74.8936 63.6432 74.4281C63.3328 73.9626 63.1672 73.4157 63.1672 72.8562C63.1672 72.2967 63.3328 71.7497 63.6432 71.2843C63.9536 70.8188 64.3949 70.4556 64.9114 70.2405C65.4279 70.0255 65.9965 69.9681 66.5455 70.0758C67.0946 70.1834 67.5995 70.4512 67.9965 70.8453L68.3492 71.1954L68.7854 70.9575L73.8954 68.1705L74.3319 67.9324L74.2282 67.4462C74.0864 66.7806 74.1888 66.0861 74.5169 65.4898C74.845 64.8935 75.3767 64.4352 76.0149 64.1988C76.6531 63.9623 77.3551 63.9635 77.9925 64.202C78.6299 64.4406 79.1602 64.9007 79.4863 65.498C79.8123 66.0954 79.9125 66.7902 79.7684 67.4554C79.6243 68.1206 79.2456 68.7117 78.7016 69.1206C78.1575 69.5295 77.4844 69.7289 76.8054 69.6823C76.1264 69.6357 75.4869 69.3463 75.0037 68.8669L74.6511 68.5171L74.215 68.7549L69.105 71.5419L68.6687 71.7799L68.7721 72.266C68.8549 72.6548 68.8549 73.0566 68.7721 73.4454L68.6687 73.9314L69.1049 74.1694L74.2149 76.9574L74.6511 77.1954L75.0037 76.8454C75.4869 76.3661 76.1264 76.0767 76.8054 76.0301C77.4844 75.9835 78.1575 76.1829 78.7016 76.5918C79.2456 77.0007 79.6243 77.5918 79.7684 78.257C79.9125 78.9221 79.8123 79.6169 79.4863 80.2143C79.1602 80.8117 78.6299 81.2718 77.9925 81.5103C77.3551 81.7489 76.6531 81.7501 76.0149 81.5136C75.3767 81.2772 74.845 80.8189 74.5169 80.2226C74.1888 79.6263 74.0864 78.9318 74.2282 78.2662Z" fill="#343A40" stroke="#0064B2" stroke-width="1.33333"/>
<path d="M98.8807 70.7198C98.8243 70.1531 98.5741 69.7023 98.13 69.3676C97.6858 69.0328 97.1274 68.8654 96.4545 68.8654C95.9806 68.8654 95.563 68.9466 95.2017 69.109C94.8438 69.2714 94.562 69.4968 94.3565 69.7852C94.1544 70.0702 94.0533 70.395 94.0533 70.7596C94.0533 71.0281 94.1113 71.2634 94.2273 71.4656C94.3433 71.6678 94.4991 71.8418 94.6946 71.9876C94.8935 72.1301 95.1122 72.2527 95.3509 72.3555C95.5928 72.4582 95.8364 72.5444 96.0817 72.614L97.1555 72.9223C97.4804 73.0117 97.8052 73.1261 98.13 73.2653C98.4548 73.4045 98.7514 73.5802 99.0199 73.7923C99.2917 74.0011 99.5088 74.258 99.6712 74.5629C99.8369 74.8645 99.9197 75.2274 99.9197 75.6517C99.9197 76.1952 99.7789 76.6841 99.4972 77.1183C99.2154 77.5525 98.8111 77.8972 98.2841 78.1524C97.7571 78.4043 97.1257 78.5302 96.3899 78.5302C95.6972 78.5302 95.0956 78.4159 94.5852 78.1872C94.0748 77.9552 93.6738 77.6353 93.3821 77.2277C93.0904 76.82 92.9264 76.3477 92.8899 75.8107H93.8445C93.8776 76.2118 94.0102 76.5515 94.2422 76.8299C94.4742 77.1083 94.7758 77.3205 95.147 77.4663C95.5182 77.6088 95.9325 77.6801 96.3899 77.6801C96.897 77.6801 97.3478 77.5955 97.7422 77.4265C98.1399 77.2542 98.4515 77.0155 98.6768 76.7106C98.9055 76.4024 99.0199 76.0444 99.0199 75.6367C99.0199 75.292 98.9304 75.0037 98.7514 74.7717C98.5724 74.5364 98.3222 74.3392 98.0007 74.1801C97.6825 74.021 97.313 73.8801 96.892 73.7575L95.674 73.3995C94.8752 73.1609 94.2554 72.8311 93.8146 72.4102C93.3738 71.9893 93.1534 71.4523 93.1534 70.7994C93.1534 70.2525 93.2992 69.7719 93.5909 69.3576C93.8859 68.94 94.2836 68.6152 94.7841 68.3832C95.2879 68.1479 95.853 68.0302 96.4794 68.0302C97.1125 68.0302 97.6726 68.1462 98.1598 68.3782C98.647 68.6102 99.0331 68.9301 99.3182 69.3377C99.6065 69.7421 99.7607 70.2028 99.7805 70.7198H98.8807ZM102.858 73.5835V78.3562H101.973V68.1744H102.858V71.918H102.938C103.116 71.5236 103.393 71.2087 103.768 70.9734C104.146 70.7381 104.623 70.6204 105.2 70.6204C105.717 70.6204 106.171 70.7265 106.562 70.9386C106.953 71.1507 107.258 71.4639 107.477 71.8782C107.695 72.2925 107.805 72.8029 107.805 73.4095V78.3562H106.915V73.4642C106.915 72.8344 106.739 72.3389 106.388 71.9776C106.04 71.6131 105.569 71.4308 104.976 71.4308C104.568 71.4308 104.205 71.5169 103.887 71.6893C103.569 71.8616 103.317 72.1102 103.131 72.435C102.949 72.7565 102.858 73.1393 102.858 73.5835ZM112.268 78.5302C111.807 78.5302 111.386 78.4407 111.005 78.2617C110.624 78.0794 110.321 77.8176 110.095 77.4762C109.87 77.1315 109.757 76.7139 109.757 76.2234C109.757 75.8455 109.829 75.5274 109.971 75.2688C110.114 75.0103 110.316 74.7982 110.578 74.6325C110.839 74.4668 111.149 74.3358 111.507 74.2397C111.865 74.1436 112.26 74.069 112.691 74.016C113.118 73.963 113.479 73.9166 113.774 73.8768C114.073 73.837 114.3 73.7741 114.455 73.6879C114.611 73.6017 114.689 73.4625 114.689 73.2703V73.0913C114.689 72.5709 114.533 72.1616 114.222 71.8633C113.914 71.5617 113.469 71.4109 112.889 71.4109C112.339 71.4109 111.89 71.5319 111.542 71.7738C111.197 72.0158 110.955 72.3008 110.816 72.6289L109.976 72.3257C110.148 71.908 110.387 71.575 110.692 71.3264C110.997 71.0745 111.338 70.8938 111.716 70.7845C112.094 70.6718 112.477 70.6154 112.865 70.6154C113.156 70.6154 113.459 70.6535 113.774 70.7298C114.093 70.806 114.387 70.9386 114.659 71.1275C114.931 71.3131 115.151 71.5733 115.32 71.908C115.49 72.2395 115.574 72.6604 115.574 73.1708V78.3562H114.689V77.1481H114.634C114.528 77.3735 114.371 77.5922 114.162 77.8044C113.953 78.0165 113.691 78.1905 113.377 78.3264C113.062 78.4623 112.692 78.5302 112.268 78.5302ZM112.387 77.7198C112.858 77.7198 113.266 77.6154 113.61 77.4066C113.955 77.1978 114.22 76.9211 114.406 76.5764C114.595 76.2284 114.689 75.8455 114.689 75.4279V74.3242C114.623 74.3872 114.512 74.4436 114.356 74.4933C114.204 74.543 114.026 74.5877 113.824 74.6275C113.625 74.664 113.426 74.6955 113.227 74.722C113.029 74.7485 112.85 74.7717 112.691 74.7916C112.26 74.8446 111.892 74.9275 111.587 75.0402C111.282 75.1528 111.048 75.3086 110.886 75.5075C110.723 75.703 110.642 75.9549 110.642 76.2632C110.642 76.7272 110.808 77.0868 111.139 77.342C111.471 77.5939 111.887 77.7198 112.387 77.7198ZM117.928 78.3562V70.7198H118.788V71.8931H118.853C119.005 71.5087 119.27 71.1988 119.648 70.9634C120.029 70.7248 120.46 70.6055 120.941 70.6055C121.014 70.6055 121.095 70.6071 121.184 70.6105C121.274 70.6138 121.349 70.6171 121.408 70.6204V71.5203C121.368 71.5136 121.299 71.5037 121.199 71.4904C121.1 71.4772 120.992 71.4705 120.876 71.4705C120.479 71.4705 120.124 71.5551 119.812 71.7241C119.504 71.8898 119.26 72.1202 119.081 72.4151C118.903 72.7101 118.813 73.0465 118.813 73.4244V78.3562H117.928ZM125.773 78.5153C125.061 78.5153 124.444 78.3496 123.924 78.0181C123.403 77.6834 123.001 77.221 122.716 76.6311C122.434 76.0378 122.293 75.355 122.293 74.5828C122.293 73.8138 122.434 73.1311 122.716 72.5345C123.001 71.9346 123.394 71.4656 123.894 71.1275C124.398 70.7861 124.979 70.6154 125.639 70.6154C126.053 70.6154 126.453 70.6917 126.837 70.8441C127.222 70.9933 127.566 71.2236 127.871 71.5352C128.18 71.8434 128.423 72.2329 128.602 72.7035C128.781 73.1708 128.871 73.7243 128.871 74.364V74.8015H122.905V74.021H127.966C127.966 73.5304 127.866 73.0896 127.667 72.6985C127.472 72.3041 127.198 71.9926 126.847 71.7639C126.499 71.5352 126.096 71.4208 125.639 71.4208C125.155 71.4208 124.729 71.5501 124.361 71.8086C123.993 72.0671 123.705 72.4085 123.496 72.8328C123.291 73.257 123.186 73.721 123.183 74.2248V74.6921C123.183 75.2987 123.287 75.829 123.496 76.283C123.708 76.7338 124.008 77.0835 124.396 77.3321C124.784 77.5806 125.243 77.7049 125.773 77.7049C126.135 77.7049 126.451 77.6486 126.723 77.5359C126.998 77.4232 127.228 77.2724 127.414 77.0835C127.603 76.8912 127.745 76.6808 127.841 76.4521L128.682 76.7255C128.566 77.047 128.375 77.3437 128.11 77.6154C127.848 77.8872 127.52 78.106 127.126 78.2717C126.734 78.4341 126.284 78.5153 125.773 78.5153ZM134.758 78.3562V70.7198H135.618V71.8931H135.683C135.835 71.5087 136.1 71.1988 136.478 70.9634C136.859 70.7248 137.29 70.6055 137.771 70.6055C137.844 70.6055 137.925 70.6071 138.015 70.6105C138.104 70.6138 138.179 70.6171 138.238 70.6204V71.5203C138.199 71.5136 138.129 71.5037 138.029 71.4904C137.93 71.4772 137.822 71.4705 137.706 71.4705C137.309 71.4705 136.954 71.5551 136.642 71.7241C136.334 71.8898 136.091 72.1202 135.912 72.4151C135.733 72.7101 135.643 73.0465 135.643 73.4244V78.3562H134.758ZM142.603 78.5153C141.891 78.5153 141.274 78.3496 140.754 78.0181C140.234 77.6834 139.831 77.221 139.546 76.6311C139.264 76.0378 139.123 75.355 139.123 74.5828C139.123 73.8138 139.264 73.1311 139.546 72.5345C139.831 71.9346 140.224 71.4656 140.724 71.1275C141.228 70.7861 141.81 70.6154 142.469 70.6154C142.883 70.6154 143.283 70.6917 143.667 70.8441C144.052 70.9933 144.396 71.2236 144.701 71.5352C145.01 71.8434 145.253 72.2329 145.432 72.7035C145.611 73.1708 145.701 73.7243 145.701 74.364V74.8015H139.735V74.021H144.796C144.796 73.5304 144.696 73.0896 144.498 72.6985C144.302 72.3041 144.029 71.9926 143.677 71.7639C143.329 71.5352 142.926 71.4208 142.469 71.4208C141.985 71.4208 141.559 71.5501 141.191 71.8086C140.824 72.0671 140.535 72.4085 140.326 72.8328C140.121 73.257 140.016 73.721 140.013 74.2248V74.6921C140.013 75.2987 140.118 75.829 140.326 76.283C140.538 76.7338 140.838 77.0835 141.226 77.3321C141.614 77.5806 142.073 77.7049 142.603 77.7049C142.965 77.7049 143.281 77.6486 143.553 77.5359C143.828 77.4232 144.058 77.2724 144.244 77.0835C144.433 76.8912 144.575 76.6808 144.672 76.4521L145.512 76.7255C145.396 77.047 145.205 77.3437 144.94 77.6154C144.678 77.8872 144.35 78.106 143.956 78.2717C143.565 78.4341 143.114 78.5153 142.603 78.5153ZM153.33 70.7198L150.54 78.3562H149.596L146.807 70.7198H147.766L150.033 77.1879H150.103L152.37 70.7198H153.33ZM155.071 78.3562V70.7198H155.961V78.3562H155.071ZM155.523 69.4073C155.341 69.4073 155.185 69.346 155.056 69.2234C154.927 69.0974 154.862 68.9466 154.862 68.771C154.862 68.5953 154.927 68.4462 155.056 68.3235C155.185 68.1976 155.341 68.1346 155.523 68.1346C155.706 68.1346 155.861 68.1976 155.991 68.3235C156.12 68.4462 156.184 68.5953 156.184 68.771C156.184 68.9466 156.12 69.0974 155.991 69.2234C155.861 69.346 155.706 69.4073 155.523 69.4073ZM161.388 78.5153C160.676 78.5153 160.059 78.3496 159.539 78.0181C159.019 77.6834 158.616 77.221 158.331 76.6311C158.049 76.0378 157.908 75.355 157.908 74.5828C157.908 73.8138 158.049 73.1311 158.331 72.5345C158.616 71.9346 159.009 71.4656 159.509 71.1275C160.013 70.7861 160.595 70.6154 161.254 70.6154C161.669 70.6154 162.068 70.6917 162.452 70.8441C162.837 70.9933 163.182 71.2236 163.487 71.5352C163.795 71.8434 164.038 72.2329 164.217 72.7035C164.396 73.1708 164.486 73.7243 164.486 74.364V74.8015H158.52V74.021H163.581C163.581 73.5304 163.482 73.0896 163.283 72.6985C163.087 72.3041 162.814 71.9926 162.462 71.7639C162.114 71.5352 161.712 71.4208 161.254 71.4208C160.77 71.4208 160.344 71.5501 159.977 71.8086C159.609 72.0671 159.32 72.4085 159.112 72.8328C158.906 73.257 158.802 73.721 158.798 74.2248V74.6921C158.798 75.2987 158.903 75.829 159.112 76.283C159.324 76.7338 159.624 77.0835 160.011 77.3321C160.399 77.5806 160.858 77.7049 161.388 77.7049C161.75 77.7049 162.066 77.6486 162.338 77.5359C162.613 77.4232 162.844 77.2724 163.029 77.0835C163.218 76.8912 163.361 76.6808 163.457 76.4521L164.297 76.7255C164.181 77.047 163.99 77.3437 163.725 77.6154C163.463 77.8872 163.135 78.106 162.741 78.2717C162.35 78.4341 161.899 78.5153 161.388 78.5153ZM168.131 78.3562L165.824 70.7198H166.759L168.569 77.0188H168.633L170.438 70.7198H171.378L173.167 77.0039H173.237L175.047 70.7198H175.981L173.675 78.3562H172.76L170.95 72.097H170.856L169.046 78.3562H168.131ZM182.832 72.3953L182.022 72.624C181.942 72.3953 181.83 72.1881 181.684 72.0025C181.538 71.8169 181.347 71.6694 181.112 71.56C180.88 71.4507 180.592 71.396 180.247 71.396C179.73 71.396 179.306 71.5186 178.974 71.7639C178.643 72.0091 178.477 72.3257 178.477 72.7134C178.477 73.0416 178.59 73.3084 178.815 73.5139C179.044 73.716 179.395 73.8768 179.869 73.9961L181.023 74.2795C181.662 74.4353 182.141 74.6822 182.459 75.0203C182.781 75.3583 182.942 75.7826 182.942 76.293C182.942 76.7239 182.822 77.1067 182.584 77.4414C182.345 77.7762 182.012 78.0397 181.584 78.2319C181.16 78.4208 180.668 78.5153 180.108 78.5153C179.362 78.5153 178.747 78.3479 178.263 78.0132C177.779 77.6751 177.47 77.1879 177.334 76.5515L178.184 76.3427C178.293 76.7968 178.507 77.1398 178.825 77.3718C179.147 77.6038 179.569 77.7198 180.093 77.7198C180.68 77.7198 181.148 77.5889 181.5 77.3271C181.851 77.0619 182.027 76.7305 182.027 76.3328C182.027 76.0245 181.924 75.766 181.719 75.5572C181.513 75.3451 181.202 75.1893 180.784 75.0899L179.536 74.7916C178.873 74.6325 178.383 74.3806 178.064 74.0359C177.746 73.6912 177.587 73.2636 177.587 72.7532C177.587 72.3323 177.702 71.9627 177.93 71.6446C178.159 71.3231 178.474 71.0712 178.875 70.8889C179.276 70.7066 179.733 70.6154 180.247 70.6154C180.946 70.6154 181.505 70.7745 181.922 71.0927C182.343 71.4076 182.647 71.8418 182.832 72.3953Z" fill="#343A40"/>
<path d="M61.6477 135.538V132.186L71.5227 116.583H74.3182V121.356H72.6136L65.9659 131.89V132.072H79.75V135.538H61.6477ZM72.75 139.856V134.515L72.7955 133.015V116.583H76.7727V139.856H72.75ZM85.304 140.106C84.6146 140.106 84.0237 139.864 83.5312 139.379C83.0388 138.894 82.7964 138.303 82.804 137.606C82.7964 136.924 83.0388 136.341 83.5312 135.856C84.0237 135.371 84.6146 135.129 85.304 135.129C85.9706 135.129 86.5502 135.371 87.0426 135.856C87.5426 136.341 87.7964 136.924 87.804 137.606C87.7964 138.068 87.6752 138.489 87.4403 138.868C87.2131 139.246 86.91 139.549 86.5312 139.777C86.16 139.996 85.7509 140.106 85.304 140.106ZM99.8153 140.174C98.3002 140.174 96.9441 139.89 95.7472 139.322C94.5502 138.746 93.5994 137.958 92.8949 136.958C92.1979 135.958 91.8267 134.815 91.7812 133.527H95.8722C95.9479 134.481 96.3608 135.262 97.1108 135.868C97.8608 136.466 98.7623 136.765 99.8153 136.765C100.641 136.765 101.376 136.576 102.02 136.197C102.664 135.818 103.171 135.292 103.543 134.618C103.914 133.943 104.096 133.174 104.088 132.311C104.096 131.432 103.91 130.652 103.531 129.97C103.152 129.288 102.634 128.754 101.974 128.368C101.315 127.974 100.558 127.777 99.7017 127.777C99.0047 127.769 98.3191 127.898 97.6449 128.163C96.9706 128.428 96.4366 128.777 96.0426 129.208L92.2358 128.583L93.4517 116.583H106.952V120.106H96.9403L96.2699 126.277H96.4062C96.8381 125.769 97.4479 125.349 98.2358 125.015C99.0237 124.674 99.8873 124.504 100.827 124.504C102.236 124.504 103.493 124.837 104.599 125.504C105.705 126.163 106.577 127.072 107.213 128.231C107.849 129.39 108.168 130.716 108.168 132.208C108.168 133.746 107.812 135.118 107.099 136.322C106.395 137.519 105.414 138.462 104.156 139.152C102.906 139.833 101.459 140.174 99.8153 140.174Z" fill="#343A40"/>
<path d="M135.049 113.283C135.348 112.362 136.652 112.362 136.951 113.283L139.817 122.103C139.951 122.515 140.335 122.794 140.768 122.794H150.041C151.01 122.794 151.413 124.034 150.629 124.603L143.127 130.054C142.776 130.308 142.63 130.76 142.763 131.172L145.629 139.991C145.928 140.913 144.874 141.679 144.09 141.109L136.588 135.659C136.237 135.404 135.763 135.404 135.412 135.659L127.91 141.109C127.126 141.679 126.072 140.913 126.371 139.991L129.237 131.172C129.37 130.76 129.224 130.308 128.873 130.054L121.371 124.603C120.587 124.034 120.99 122.794 121.959 122.794H131.232C131.665 122.794 132.049 122.515 132.183 122.103L135.049 113.283Z" fill="#FFC857" stroke="#343A40" stroke-opacity="0.5"/>
<path d="M171.049 113.283C171.348 112.362 172.652 112.362 172.951 113.283L175.817 122.103C175.951 122.515 176.335 122.794 176.768 122.794H186.041C187.01 122.794 187.413 124.034 186.629 124.603L179.127 130.054C178.776 130.308 178.63 130.76 178.763 131.172L181.629 139.991C181.928 140.913 180.874 141.679 180.09 141.109L172.588 135.659C172.237 135.404 171.763 135.404 171.412 135.659L163.91 141.109C163.126 141.679 162.072 140.913 162.371 139.991L165.237 131.172C165.37 130.76 165.224 130.308 164.873 130.054L157.371 124.603C156.587 124.034 156.99 122.794 157.959 122.794H167.232C167.665 122.794 168.049 122.515 168.183 122.103L171.049 113.283Z" fill="#FFC857" stroke="#343A40" stroke-opacity="0.5"/>
<path d="M207.049 113.283C207.348 112.362 208.652 112.362 208.951 113.283L211.817 122.103C211.951 122.515 212.335 122.794 212.768 122.794H222.041C223.01 122.794 223.413 124.034 222.629 124.603L215.127 130.054C214.776 130.308 214.63 130.76 214.763 131.172L217.629 139.991C217.928 140.913 216.874 141.679 216.09 141.109L208.588 135.659C208.237 135.404 207.763 135.404 207.412 135.659L199.91 141.109C199.126 141.679 198.072 140.913 198.371 139.991L201.237 131.172C201.37 130.76 201.224 130.308 200.873 130.054L193.371 124.603C192.587 124.034 192.99 122.794 193.959 122.794H203.232C203.665 122.794 204.049 122.515 204.183 122.103L207.049 113.283Z" fill="#FFC857" stroke="#343A40" stroke-opacity="0.5"/>
<path d="M243.049 113.283C243.348 112.362 244.652 112.362 244.951 113.283L247.817 122.103C247.951 122.515 248.335 122.794 248.768 122.794H258.041C259.01 122.794 259.413 124.034 258.629 124.603L251.127 130.054C250.776 130.308 250.63 130.76 250.763 131.172L253.629 139.991C253.928 140.913 252.874 141.679 252.09 141.109L244.588 135.659C244.237 135.404 243.763 135.404 243.412 135.659L235.91 141.109C235.126 141.679 234.072 140.913 234.371 139.991L237.237 131.172C237.37 130.76 237.224 130.308 236.873 130.054L229.371 124.603C228.587 124.034 228.99 122.794 229.959 122.794H239.232C239.665 122.794 240.049 122.515 240.183 122.103L243.049 113.283Z" fill="#FFC857" stroke="#343A40" stroke-opacity="0.5"/>
<path d="M279.049 113.283C279.348 112.362 280.652 112.362 280.951 113.283L283.817 122.103C283.951 122.515 284.335 122.794 284.768 122.794H294.041C295.01 122.794 295.413 124.034 294.629 124.603L287.127 130.054C286.776 130.308 286.63 130.76 286.763 131.172L289.629 139.991C289.928 140.913 288.874 141.679 288.09 141.109L280.588 135.659C280.237 135.404 279.763 135.404 279.412 135.659L271.91 141.109C271.126 141.679 270.072 140.913 270.371 139.991L273.237 131.172C273.37 130.76 273.224 130.308 272.873 130.054L265.371 124.603C264.587 124.034 264.99 122.794 265.959 122.794H275.232C275.665 122.794 276.049 122.515 276.183 122.103L279.049 113.283Z" fill="url(#paint0_linear_2022_383)"/>
<path d="M279.524 113.438C279.674 112.977 280.326 112.977 280.476 113.438L283.341 122.257C283.542 122.875 284.118 123.294 284.768 123.294H294.041C294.526 123.294 294.727 123.914 294.335 124.198L286.833 129.649C286.307 130.031 286.087 130.708 286.288 131.326L289.154 140.146C289.303 140.607 288.776 140.99 288.384 140.705L280.882 135.254C280.356 134.872 279.644 134.872 279.118 135.254L271.616 140.705C271.224 140.99 270.697 140.607 270.846 140.146L273.712 131.326C273.913 130.708 273.693 130.031 273.167 129.649L265.665 124.198C265.273 123.914 265.474 123.294 265.959 123.294H275.232C275.882 123.294 276.458 122.875 276.659 122.257L279.524 113.438Z" stroke="#343A40" stroke-opacity="0.5"/>
<path d="M61.5455 174.856V163.22H65.3011C66.1269 163.22 66.8163 163.369 67.3693 163.669C67.9261 163.964 68.3447 164.375 68.625 164.902C68.9091 165.424 69.0511 166.025 69.0511 166.703C69.0511 167.381 68.9091 167.979 68.625 168.498C68.3447 169.017 67.928 169.422 67.375 169.714C66.822 170.006 66.1364 170.152 65.3182 170.152H62.1193V169.18H65.2898C65.8958 169.18 66.3996 169.08 66.8011 168.879C67.2064 168.678 67.5076 168.392 67.7045 168.021C67.9053 167.65 68.0057 167.21 68.0057 166.703C68.0057 166.195 67.9053 165.752 67.7045 165.373C67.5038 164.991 67.2008 164.695 66.7955 164.487C66.3939 164.279 65.8864 164.174 65.2727 164.174H62.608V174.856H61.5455ZM66.6761 169.606L69.5398 174.856H68.3125L65.4773 169.606H66.6761ZM73.8665 175.055C73.34 175.055 72.8589 174.953 72.4233 174.748C71.9877 174.54 71.6411 174.241 71.3835 173.851C71.1259 173.457 70.9972 172.979 70.9972 172.419C70.9972 171.987 71.0786 171.623 71.2415 171.328C71.4044 171.032 71.6354 170.79 71.9347 170.601C72.2339 170.411 72.5881 170.262 72.9972 170.152C73.4063 170.042 73.857 169.957 74.3494 169.896C74.8381 169.835 75.2509 169.782 75.5881 169.737C75.929 169.691 76.1884 169.619 76.3665 169.521C76.5445 169.422 76.6335 169.263 76.6335 169.044V168.839C76.6335 168.244 76.4555 167.777 76.0994 167.436C75.7472 167.091 75.2396 166.919 74.5767 166.919C73.9479 166.919 73.4347 167.057 73.0369 167.333C72.643 167.61 72.3665 167.936 72.2074 168.311L71.2472 167.964C71.4441 167.487 71.7169 167.106 72.0653 166.822C72.4138 166.534 72.804 166.328 73.2358 166.203C73.6676 166.074 74.1051 166.01 74.5483 166.01C74.8816 166.01 75.2282 166.053 75.5881 166.14C75.9517 166.227 76.2888 166.379 76.5994 166.595C76.91 166.807 77.1619 167.104 77.3551 167.487C77.5483 167.866 77.6449 168.347 77.6449 168.93V174.856H76.6335V173.476H76.571C76.4498 173.733 76.2699 173.983 76.0312 174.226C75.7926 174.468 75.4934 174.667 75.1335 174.822C74.7737 174.977 74.3513 175.055 73.8665 175.055ZM74.0028 174.129C74.5407 174.129 75.0066 174.01 75.4006 173.771C75.7945 173.532 76.0975 173.216 76.3097 172.822C76.5256 172.424 76.6335 171.987 76.6335 171.51V170.248C76.5578 170.32 76.4309 170.385 76.2528 170.441C76.0786 170.498 75.8759 170.549 75.6449 170.595C75.4176 170.637 75.1903 170.672 74.9631 170.703C74.7358 170.733 74.5312 170.76 74.3494 170.782C73.857 170.843 73.4366 170.938 73.0881 171.066C72.7396 171.195 72.4725 171.373 72.2869 171.601C72.1013 171.824 72.0085 172.112 72.0085 172.464C72.0085 172.994 72.1979 173.405 72.5767 173.697C72.9555 173.985 73.4309 174.129 74.0028 174.129ZM83.7727 166.129V167.01H79.608V166.129H83.7727ZM80.9091 164.038H81.9261V172.578C81.9261 172.941 81.9886 173.227 82.1136 173.436C82.2386 173.64 82.4015 173.786 82.6023 173.873C82.803 173.957 83.017 173.998 83.2443 173.998C83.3769 173.998 83.4905 173.991 83.5852 173.976C83.6799 173.957 83.7633 173.938 83.8352 173.919L84.0511 174.833C83.9527 174.871 83.8314 174.905 83.6875 174.936C83.5436 174.97 83.3655 174.987 83.1534 174.987C82.7822 174.987 82.4242 174.905 82.0795 174.743C81.7386 174.58 81.4583 174.337 81.2386 174.015C81.0189 173.693 80.9091 173.294 80.9091 172.816V164.038ZM86.081 174.856V166.129H87.098V174.856H86.081ZM86.598 164.629C86.3897 164.629 86.2116 164.559 86.0639 164.419C85.9162 164.275 85.8423 164.102 85.8423 163.902C85.8423 163.701 85.9162 163.53 86.0639 163.39C86.2116 163.246 86.3897 163.174 86.598 163.174C86.8063 163.174 86.9844 163.246 87.1321 163.39C87.2798 163.53 87.3537 163.701 87.3537 163.902C87.3537 164.102 87.2798 164.275 87.1321 164.419C86.9844 164.559 86.8063 164.629 86.598 164.629ZM90.7841 169.402V174.856H89.7727V166.129H90.7557V167.498H90.8466C91.0511 167.051 91.3693 166.693 91.8011 166.424C92.2367 166.152 92.7746 166.015 93.4148 166.015C94.0019 166.015 94.517 166.138 94.9602 166.385C95.4072 166.627 95.7538 166.985 96 167.458C96.25 167.932 96.375 168.513 96.375 169.203V174.856H95.3636V169.265C95.3636 168.549 95.1629 167.983 94.7614 167.566C94.3636 167.15 93.8295 166.941 93.1591 166.941C92.7008 166.941 92.2936 167.04 91.9375 167.237C91.5814 167.434 91.2992 167.718 91.0909 168.089C90.8864 168.457 90.7841 168.894 90.7841 169.402ZM102.368 178.311C101.773 178.311 101.252 178.233 100.805 178.078C100.358 177.926 99.9815 177.718 99.6747 177.453C99.3679 177.188 99.1293 176.89 98.9588 176.561L99.7884 176.015C99.9134 176.235 100.08 176.451 100.288 176.663C100.5 176.875 100.775 177.051 101.112 177.191C101.453 177.332 101.872 177.402 102.368 177.402C103.141 177.402 103.764 177.208 104.237 176.822C104.714 176.436 104.953 175.835 104.953 175.021V173.055H104.862C104.745 173.32 104.576 173.585 104.357 173.851C104.137 174.112 103.849 174.33 103.493 174.504C103.141 174.678 102.703 174.765 102.18 174.765C101.483 174.765 100.864 174.593 100.322 174.248C99.7846 173.904 99.3603 173.411 99.0497 172.771C98.7429 172.127 98.5895 171.36 98.5895 170.47C98.5895 169.587 98.7391 168.811 99.0384 168.14C99.3414 167.47 99.7637 166.947 100.305 166.572C100.847 166.197 101.478 166.01 102.197 166.01C102.732 166.01 103.175 166.104 103.527 166.294C103.879 166.479 104.161 166.71 104.374 166.987C104.589 167.263 104.758 167.532 104.879 167.794H104.982V166.129H105.97V175.083C105.97 175.822 105.813 176.43 105.499 176.907C105.184 177.385 104.756 177.737 104.214 177.964C103.673 178.195 103.057 178.311 102.368 178.311ZM102.3 173.839C102.86 173.839 103.339 173.705 103.737 173.436C104.135 173.163 104.44 172.773 104.652 172.265C104.864 171.758 104.97 171.154 104.97 170.453C104.97 169.771 104.866 169.167 104.658 168.64C104.449 168.11 104.146 167.693 103.749 167.39C103.355 167.083 102.872 166.93 102.3 166.93C101.716 166.93 101.224 167.087 100.822 167.402C100.421 167.716 100.118 168.14 99.9134 168.674C99.7088 169.205 99.6065 169.797 99.6065 170.453C99.6065 171.119 99.7107 171.708 99.919 172.22C100.127 172.727 100.432 173.125 100.834 173.413C101.235 173.697 101.724 173.839 102.3 173.839ZM113.358 174.856V163.22H114.375V167.794H114.466C114.58 167.532 114.742 167.263 114.955 166.987C115.17 166.71 115.453 166.479 115.801 166.294C116.153 166.104 116.597 166.01 117.131 166.01C117.847 166.01 118.475 166.199 119.017 166.578C119.559 166.953 119.981 167.479 120.284 168.157C120.587 168.832 120.739 169.618 120.739 170.515C120.739 171.417 120.587 172.207 120.284 172.885C119.985 173.563 119.564 174.091 119.023 174.47C118.485 174.849 117.86 175.038 117.148 175.038C116.617 175.038 116.174 174.943 115.818 174.754C115.466 174.565 115.182 174.332 114.966 174.055C114.75 173.775 114.583 173.502 114.466 173.237H114.341V174.856H113.358ZM114.358 170.498C114.358 171.203 114.462 171.828 114.67 172.373C114.883 172.915 115.186 173.341 115.58 173.652C115.977 173.958 116.458 174.112 117.023 174.112C117.602 174.112 118.093 173.953 118.494 173.635C118.896 173.313 119.201 172.879 119.409 172.333C119.617 171.788 119.722 171.176 119.722 170.498C119.722 169.828 119.617 169.224 119.409 168.686C119.205 168.148 118.902 167.722 118.5 167.407C118.098 167.089 117.606 166.93 117.023 166.93C116.455 166.93 115.972 167.083 115.574 167.39C115.18 167.693 114.879 168.114 114.67 168.652C114.462 169.186 114.358 169.801 114.358 170.498ZM125.398 175.055C124.871 175.055 124.39 174.953 123.955 174.748C123.519 174.54 123.172 174.241 122.915 173.851C122.657 173.457 122.528 172.979 122.528 172.419C122.528 171.987 122.61 171.623 122.773 171.328C122.936 171.032 123.167 170.79 123.466 170.601C123.765 170.411 124.119 170.262 124.528 170.152C124.938 170.042 125.388 169.957 125.881 169.896C126.369 169.835 126.782 169.782 127.119 169.737C127.46 169.691 127.72 169.619 127.898 169.521C128.076 169.422 128.165 169.263 128.165 169.044V168.839C128.165 168.244 127.987 167.777 127.631 167.436C127.278 167.091 126.771 166.919 126.108 166.919C125.479 166.919 124.966 167.057 124.568 167.333C124.174 167.61 123.898 167.936 123.739 168.311L122.778 167.964C122.975 167.487 123.248 167.106 123.597 166.822C123.945 166.534 124.335 166.328 124.767 166.203C125.199 166.074 125.636 166.01 126.08 166.01C126.413 166.01 126.759 166.053 127.119 166.14C127.483 166.227 127.82 166.379 128.131 166.595C128.441 166.807 128.693 167.104 128.886 167.487C129.08 167.866 129.176 168.347 129.176 168.93V174.856H128.165V173.476H128.102C127.981 173.733 127.801 173.983 127.562 174.226C127.324 174.468 127.025 174.667 126.665 174.822C126.305 174.977 125.883 175.055 125.398 175.055ZM125.534 174.129C126.072 174.129 126.538 174.01 126.932 173.771C127.326 173.532 127.629 173.216 127.841 172.822C128.057 172.424 128.165 171.987 128.165 171.51V170.248C128.089 170.32 127.962 170.385 127.784 170.441C127.61 170.498 127.407 170.549 127.176 170.595C126.949 170.637 126.722 170.672 126.494 170.703C126.267 170.733 126.062 170.76 125.881 170.782C125.388 170.843 124.968 170.938 124.619 171.066C124.271 171.195 124.004 171.373 123.818 171.601C123.633 171.824 123.54 172.112 123.54 172.464C123.54 172.994 123.729 173.405 124.108 173.697C124.487 173.985 124.962 174.129 125.534 174.129ZM137.73 168.044L136.804 168.305C136.713 168.044 136.584 167.807 136.418 167.595C136.251 167.383 136.033 167.214 135.764 167.089C135.499 166.964 135.17 166.902 134.776 166.902C134.185 166.902 133.7 167.042 133.321 167.322C132.942 167.602 132.753 167.964 132.753 168.407C132.753 168.782 132.882 169.087 133.139 169.322C133.401 169.553 133.802 169.737 134.344 169.873L135.662 170.197C136.393 170.375 136.94 170.657 137.304 171.044C137.671 171.43 137.855 171.915 137.855 172.498C137.855 172.991 137.719 173.428 137.446 173.811C137.173 174.193 136.793 174.494 136.304 174.714C135.819 174.93 135.257 175.038 134.616 175.038C133.764 175.038 133.062 174.847 132.509 174.464C131.955 174.078 131.601 173.521 131.446 172.794L132.418 172.555C132.543 173.074 132.787 173.466 133.151 173.731C133.518 173.996 134.001 174.129 134.599 174.129C135.27 174.129 135.806 173.979 136.207 173.68C136.609 173.377 136.81 172.998 136.81 172.544C136.81 172.191 136.692 171.896 136.457 171.657C136.223 171.415 135.866 171.237 135.389 171.123L133.963 170.782C133.205 170.601 132.645 170.313 132.281 169.919C131.918 169.525 131.736 169.036 131.736 168.453C131.736 167.972 131.866 167.549 132.128 167.186C132.389 166.818 132.749 166.53 133.207 166.322C133.666 166.114 134.188 166.01 134.776 166.01C135.575 166.01 136.213 166.191 136.69 166.555C137.171 166.915 137.518 167.411 137.73 168.044ZM143.598 175.038C142.784 175.038 142.079 174.849 141.484 174.47C140.89 174.087 140.429 173.559 140.104 172.885C139.782 172.207 139.621 171.426 139.621 170.544C139.621 169.665 139.782 168.885 140.104 168.203C140.429 167.517 140.878 166.981 141.45 166.595C142.026 166.205 142.691 166.01 143.445 166.01C143.918 166.01 144.375 166.097 144.814 166.271C145.253 166.441 145.647 166.705 145.996 167.061C146.348 167.413 146.626 167.858 146.831 168.396C147.036 168.93 147.138 169.563 147.138 170.294V170.794H140.32V169.902H146.104C146.104 169.341 145.99 168.837 145.763 168.39C145.539 167.94 145.227 167.583 144.825 167.322C144.428 167.061 143.967 166.93 143.445 166.93C142.892 166.93 142.405 167.078 141.984 167.373C141.564 167.669 141.234 168.059 140.996 168.544C140.761 169.029 140.642 169.559 140.638 170.135V170.669C140.638 171.362 140.757 171.968 140.996 172.487C141.238 173.002 141.581 173.402 142.024 173.686C142.467 173.97 142.992 174.112 143.598 174.112C144.011 174.112 144.373 174.047 144.683 173.919C144.998 173.79 145.261 173.618 145.473 173.402C145.689 173.182 145.852 172.941 145.962 172.68L146.922 172.993C146.789 173.36 146.571 173.699 146.268 174.01C145.969 174.32 145.594 174.57 145.143 174.76C144.696 174.945 144.181 175.038 143.598 175.038ZM152.509 175.038C151.793 175.038 151.166 174.849 150.628 174.47C150.09 174.091 149.67 173.563 149.366 172.885C149.067 172.207 148.918 171.417 148.918 170.515C148.918 169.618 149.067 168.832 149.366 168.157C149.67 167.479 150.092 166.953 150.634 166.578C151.175 166.199 151.806 166.01 152.526 166.01C153.056 166.01 153.497 166.104 153.849 166.294C154.202 166.479 154.484 166.71 154.696 166.987C154.908 167.263 155.073 167.532 155.19 167.794H155.281V163.22H156.298V174.856H155.31V173.237H155.19C155.073 173.502 154.906 173.775 154.69 174.055C154.474 174.332 154.188 174.565 153.832 174.754C153.48 174.943 153.039 175.038 152.509 175.038ZM152.628 174.112C153.192 174.112 153.673 173.958 154.071 173.652C154.469 173.341 154.772 172.915 154.98 172.373C155.192 171.828 155.298 171.203 155.298 170.498C155.298 169.801 155.194 169.186 154.986 168.652C154.777 168.114 154.474 167.693 154.077 167.39C153.679 167.083 153.196 166.93 152.628 166.93C152.045 166.93 151.552 167.089 151.151 167.407C150.753 167.722 150.45 168.148 150.241 168.686C150.037 169.224 149.935 169.828 149.935 170.498C149.935 171.176 150.039 171.788 150.247 172.333C150.455 172.879 150.759 173.313 151.156 173.635C151.558 173.953 152.048 174.112 152.628 174.112ZM167.071 175.038C166.317 175.038 165.651 174.847 165.071 174.464C164.495 174.082 164.045 173.553 163.719 172.879C163.393 172.201 163.23 171.419 163.23 170.532C163.23 169.638 163.393 168.852 163.719 168.174C164.045 167.493 164.495 166.962 165.071 166.583C165.651 166.201 166.317 166.01 167.071 166.01C167.825 166.01 168.49 166.201 169.065 166.583C169.641 166.966 170.092 167.496 170.418 168.174C170.747 168.852 170.912 169.638 170.912 170.532C170.912 171.419 170.749 172.201 170.423 172.879C170.098 173.553 169.645 174.082 169.065 174.464C168.49 174.847 167.825 175.038 167.071 175.038ZM167.071 174.112C167.677 174.112 168.19 173.949 168.611 173.623C169.031 173.297 169.349 172.864 169.565 172.322C169.785 171.78 169.895 171.184 169.895 170.532C169.895 169.881 169.785 169.282 169.565 168.737C169.349 168.191 169.031 167.754 168.611 167.424C168.19 167.095 167.677 166.93 167.071 166.93C166.469 166.93 165.955 167.095 165.531 167.424C165.111 167.754 164.791 168.191 164.571 168.737C164.355 169.282 164.247 169.881 164.247 170.532C164.247 171.184 164.355 171.78 164.571 172.322C164.791 172.864 165.111 173.297 165.531 173.623C165.952 173.949 166.465 174.112 167.071 174.112ZM174.143 169.402V174.856H173.132V166.129H174.115V167.498H174.206C174.411 167.051 174.729 166.693 175.161 166.424C175.596 166.152 176.134 166.015 176.774 166.015C177.361 166.015 177.876 166.138 178.32 166.385C178.767 166.627 179.113 166.985 179.359 167.458C179.609 167.932 179.734 168.513 179.734 169.203V174.856H178.723V169.265C178.723 168.549 178.522 167.983 178.121 167.566C177.723 167.15 177.189 166.941 176.518 166.941C176.06 166.941 175.653 167.04 175.297 167.237C174.941 167.434 174.659 167.718 174.45 168.089C174.246 168.457 174.143 168.894 174.143 169.402ZM190.29 175.038C189.536 175.038 188.869 174.847 188.29 174.464C187.714 174.082 187.263 173.553 186.938 172.879C186.612 172.201 186.449 171.419 186.449 170.532C186.449 169.638 186.612 168.852 186.938 168.174C187.263 167.493 187.714 166.962 188.29 166.583C188.869 166.201 189.536 166.01 190.29 166.01C191.044 166.01 191.708 166.201 192.284 166.583C192.86 166.966 193.311 167.496 193.636 168.174C193.966 168.852 194.131 169.638 194.131 170.532C194.131 171.419 193.968 172.201 193.642 172.879C193.316 173.553 192.864 174.082 192.284 174.464C191.708 174.847 191.044 175.038 190.29 175.038ZM190.29 174.112C190.896 174.112 191.409 173.949 191.83 173.623C192.25 173.297 192.568 172.864 192.784 172.322C193.004 171.78 193.114 171.184 193.114 170.532C193.114 169.881 193.004 169.282 192.784 168.737C192.568 168.191 192.25 167.754 191.83 167.424C191.409 167.095 190.896 166.93 190.29 166.93C189.688 166.93 189.174 167.095 188.75 167.424C188.33 167.754 188.009 168.191 187.79 168.737C187.574 169.282 187.466 169.881 187.466 170.532C187.466 171.184 187.574 171.78 187.79 172.322C188.009 172.864 188.33 173.297 188.75 173.623C189.17 173.949 189.684 174.112 190.29 174.112ZM201.896 171.521V166.129H202.908V174.856H201.896V173.407H201.817C201.612 173.854 201.288 174.227 200.845 174.527C200.402 174.822 199.86 174.97 199.22 174.97C198.663 174.97 198.169 174.849 197.737 174.606C197.305 174.36 196.966 174 196.72 173.527C196.474 173.053 196.351 172.472 196.351 171.782V166.129H197.362V171.72C197.362 172.402 197.563 172.951 197.964 173.368C198.366 173.78 198.881 173.987 199.51 173.987C199.904 173.987 200.283 173.892 200.646 173.703C201.01 173.513 201.309 173.237 201.544 172.873C201.779 172.506 201.896 172.055 201.896 171.521ZM205.585 174.856V166.129H206.568V167.47H206.642C206.816 167.03 207.119 166.676 207.551 166.407C207.987 166.135 208.479 165.998 209.028 165.998C209.112 165.998 209.205 166 209.307 166.004C209.409 166.008 209.494 166.012 209.562 166.015V167.044C209.517 167.036 209.438 167.025 209.324 167.01C209.21 166.994 209.087 166.987 208.955 166.987C208.5 166.987 208.095 167.083 207.739 167.277C207.386 167.466 207.108 167.729 206.903 168.066C206.699 168.404 206.597 168.788 206.597 169.22V174.856H205.585ZM219.152 175.015C218.504 175.015 217.925 174.885 217.413 174.623C216.906 174.358 216.5 173.994 216.197 173.532C215.898 173.07 215.739 172.542 215.72 171.947H216.749C216.783 172.565 217.025 173.072 217.476 173.47C217.927 173.864 218.485 174.061 219.152 174.061C219.671 174.061 220.133 173.938 220.538 173.691C220.944 173.441 221.26 173.101 221.487 172.669C221.718 172.233 221.834 171.743 221.834 171.197C221.83 170.629 221.707 170.129 221.464 169.697C221.222 169.262 220.893 168.921 220.476 168.674C220.063 168.428 219.599 168.305 219.084 168.305C218.694 168.301 218.311 168.366 217.936 168.498C217.561 168.631 217.249 168.801 216.999 169.01L215.936 168.873L216.635 163.22H222.385V164.174H217.527L217.061 168.066H217.118C217.375 167.851 217.688 167.674 218.055 167.538C218.427 167.402 218.819 167.333 219.232 167.333C219.917 167.333 220.533 167.498 221.078 167.828C221.627 168.157 222.061 168.612 222.379 169.191C222.701 169.767 222.862 170.43 222.862 171.18C222.862 171.915 222.701 172.572 222.379 173.152C222.061 173.727 221.622 174.182 221.061 174.515C220.504 174.849 219.868 175.015 219.152 175.015ZM228.871 163.22V174.856H227.808V164.333H227.74L225.013 166.146V165.044L227.763 163.22H228.871ZM232.405 174.856V174.078L236.206 169.805C236.702 169.244 237.102 168.765 237.405 168.368C237.708 167.97 237.928 167.602 238.064 167.265C238.204 166.928 238.274 166.578 238.274 166.214C238.274 165.771 238.17 165.385 237.962 165.055C237.757 164.722 237.475 164.462 237.115 164.277C236.755 164.091 236.35 163.998 235.899 163.998C235.422 163.998 235.003 164.101 234.643 164.305C234.287 164.51 234.011 164.79 233.814 165.146C233.617 165.502 233.518 165.911 233.518 166.373H232.501C232.501 165.729 232.649 165.159 232.945 164.663C233.244 164.163 233.651 163.771 234.166 163.487C234.685 163.203 235.272 163.061 235.928 163.061C236.575 163.061 237.151 163.201 237.655 163.481C238.159 163.758 238.554 164.135 238.842 164.612C239.13 165.089 239.274 165.623 239.274 166.214C239.274 166.642 239.198 167.057 239.047 167.458C238.899 167.86 238.643 168.307 238.28 168.799C237.916 169.292 237.412 169.894 236.768 170.606L233.882 173.828V173.902H239.638V174.856H232.405ZM246.71 174.856V166.129H247.693V167.47H247.767C247.941 167.03 248.244 166.676 248.676 166.407C249.112 166.135 249.604 165.998 250.153 165.998C250.237 165.998 250.33 166 250.432 166.004C250.534 166.008 250.619 166.012 250.688 166.015V167.044C250.642 167.036 250.563 167.025 250.449 167.01C250.335 166.994 250.212 166.987 250.08 166.987C249.625 166.987 249.22 167.083 248.864 167.277C248.511 167.466 248.233 167.729 248.028 168.066C247.824 168.404 247.722 168.788 247.722 169.22V174.856H246.71ZM255.676 175.038C254.862 175.038 254.157 174.849 253.562 174.47C252.968 174.087 252.508 173.559 252.182 172.885C251.86 172.207 251.699 171.426 251.699 170.544C251.699 169.665 251.86 168.885 252.182 168.203C252.508 167.517 252.956 166.981 253.528 166.595C254.104 166.205 254.769 166.01 255.523 166.01C255.996 166.01 256.453 166.097 256.892 166.271C257.331 166.441 257.725 166.705 258.074 167.061C258.426 167.413 258.705 167.858 258.909 168.396C259.114 168.93 259.216 169.563 259.216 170.294V170.794H252.398V169.902H258.182C258.182 169.341 258.068 168.837 257.841 168.39C257.617 167.94 257.305 167.583 256.903 167.322C256.506 167.061 256.045 166.93 255.523 166.93C254.97 166.93 254.483 167.078 254.062 167.373C253.642 167.669 253.313 168.059 253.074 168.544C252.839 169.029 252.72 169.559 252.716 170.135V170.669C252.716 171.362 252.835 171.968 253.074 172.487C253.316 173.002 253.659 173.402 254.102 173.686C254.545 173.97 255.07 174.112 255.676 174.112C256.089 174.112 256.451 174.047 256.761 173.919C257.076 173.79 257.339 173.618 257.551 173.402C257.767 173.182 257.93 172.941 258.04 172.68L259 172.993C258.867 173.36 258.65 173.699 258.347 174.01C258.047 174.32 257.672 174.57 257.222 174.76C256.775 174.945 256.259 175.038 255.676 175.038ZM267.935 166.129L264.747 174.856H263.668L260.48 166.129H261.577L264.168 173.521H264.247L266.838 166.129H267.935ZM269.925 174.856V166.129H270.942V174.856H269.925ZM270.442 164.629C270.233 164.629 270.055 164.559 269.908 164.419C269.76 164.275 269.686 164.102 269.686 163.902C269.686 163.701 269.76 163.53 269.908 163.39C270.055 163.246 270.233 163.174 270.442 163.174C270.65 163.174 270.828 163.246 270.976 163.39C271.124 163.53 271.197 163.701 271.197 163.902C271.197 164.102 271.124 164.275 270.976 164.419C270.828 164.559 270.65 164.629 270.442 164.629ZM277.145 175.038C276.33 175.038 275.626 174.849 275.031 174.47C274.437 174.087 273.976 173.559 273.651 172.885C273.329 172.207 273.168 171.426 273.168 170.544C273.168 169.665 273.329 168.885 273.651 168.203C273.976 167.517 274.425 166.981 274.997 166.595C275.573 166.205 276.238 166.01 276.991 166.01C277.465 166.01 277.921 166.097 278.361 166.271C278.8 166.441 279.194 166.705 279.543 167.061C279.895 167.413 280.173 167.858 280.378 168.396C280.582 168.93 280.685 169.563 280.685 170.294V170.794H273.866V169.902H279.651C279.651 169.341 279.537 168.837 279.31 168.39C279.086 167.94 278.774 167.583 278.372 167.322C277.974 167.061 277.514 166.93 276.991 166.93C276.438 166.93 275.952 167.078 275.531 167.373C275.111 167.669 274.781 168.059 274.543 168.544C274.308 169.029 274.188 169.559 274.185 170.135V170.669C274.185 171.362 274.304 171.968 274.543 172.487C274.785 173.002 275.128 173.402 275.571 173.686C276.014 173.97 276.539 174.112 277.145 174.112C277.558 174.112 277.92 174.047 278.23 173.919C278.545 173.79 278.808 173.618 279.02 173.402C279.236 173.182 279.399 172.941 279.509 172.68L280.469 172.993C280.336 173.36 280.118 173.699 279.815 174.01C279.516 174.32 279.141 174.57 278.69 174.76C278.243 174.945 277.728 175.038 277.145 175.038ZM284.851 174.856L282.214 166.129H283.283L285.351 173.328H285.425L287.487 166.129H288.561L290.607 173.311H290.686L292.754 166.129H293.822L291.186 174.856H290.141L288.072 167.703H287.964L285.896 174.856H284.851ZM301.652 168.044L300.726 168.305C300.635 168.044 300.506 167.807 300.339 167.595C300.173 167.383 299.955 167.214 299.686 167.089C299.421 166.964 299.091 166.902 298.697 166.902C298.107 166.902 297.622 167.042 297.243 167.322C296.864 167.602 296.675 167.964 296.675 168.407C296.675 168.782 296.804 169.087 297.061 169.322C297.322 169.553 297.724 169.737 298.266 169.873L299.584 170.197C300.315 170.375 300.862 170.657 301.226 171.044C301.593 171.43 301.777 171.915 301.777 172.498C301.777 172.991 301.641 173.428 301.368 173.811C301.095 174.193 300.714 174.494 300.226 174.714C299.741 174.93 299.179 175.038 298.538 175.038C297.686 175.038 296.983 174.847 296.43 174.464C295.877 174.078 295.523 173.521 295.368 172.794L296.339 172.555C296.464 173.074 296.709 173.466 297.072 173.731C297.44 173.996 297.923 174.129 298.521 174.129C299.192 174.129 299.728 173.979 300.129 173.68C300.531 173.377 300.732 172.998 300.732 172.544C300.732 172.191 300.614 171.896 300.379 171.657C300.144 171.415 299.788 171.237 299.311 171.123L297.885 170.782C297.127 170.601 296.567 170.313 296.203 169.919C295.839 169.525 295.658 169.036 295.658 168.453C295.658 167.972 295.788 167.549 296.05 167.186C296.311 166.818 296.671 166.53 297.129 166.322C297.588 166.114 298.11 166.01 298.697 166.01C299.497 166.01 300.135 166.191 300.612 166.555C301.093 166.915 301.44 167.411 301.652 168.044Z" fill="#343A40"/>
<path d="M61.2784 205.856V194.22H65.4261C66.3277 194.22 67.0758 194.375 67.6705 194.686C68.2689 194.996 68.7159 195.426 69.0114 195.976C69.3068 196.521 69.4545 197.152 69.4545 197.868C69.4545 198.58 69.3049 199.207 69.0057 199.748C68.7102 200.286 68.2633 200.705 67.6648 201.004C67.0701 201.303 66.322 201.453 65.4205 201.453H62.2784V199.941H65.2614C65.8295 199.941 66.2917 199.86 66.6477 199.697C67.0076 199.534 67.2708 199.297 67.4375 198.987C67.6042 198.676 67.6875 198.303 67.6875 197.868C67.6875 197.428 67.6023 197.047 67.4318 196.726C67.2652 196.404 67.0019 196.157 66.642 195.987C66.286 195.813 65.8182 195.726 65.2386 195.726H63.0341V205.856H61.2784ZM67.0227 200.606L69.8977 205.856H67.8977L65.0795 200.606H67.0227ZM75.1065 206.032C74.2467 206.032 73.5062 205.849 72.8849 205.481C72.2675 205.11 71.7902 204.589 71.4531 203.919C71.1198 203.244 70.9531 202.455 70.9531 201.549C70.9531 200.655 71.1198 199.868 71.4531 199.186C71.7902 198.504 72.2599 197.972 72.8622 197.589C73.4683 197.207 74.1766 197.015 74.9872 197.015C75.4796 197.015 75.9569 197.097 76.419 197.26C76.8812 197.422 77.2959 197.678 77.6634 198.027C78.0308 198.375 78.3205 198.828 78.5327 199.385C78.7448 199.938 78.8509 200.61 78.8509 201.402V202.004H71.9134V200.731H77.1861C77.1861 200.284 77.0952 199.888 76.9134 199.544C76.7315 199.195 76.4759 198.921 76.1463 198.72C75.8205 198.519 75.438 198.419 74.9986 198.419C74.5213 198.419 74.1046 198.536 73.7486 198.771C73.3963 199.002 73.1236 199.305 72.9304 199.68C72.741 200.051 72.6463 200.455 72.6463 200.89V201.885C72.6463 202.468 72.7486 202.964 72.9531 203.373C73.1615 203.782 73.4512 204.095 73.8224 204.311C74.1937 204.523 74.6274 204.629 75.1236 204.629C75.4455 204.629 75.7391 204.583 76.0043 204.493C76.2694 204.398 76.4986 204.258 76.6918 204.072C76.8849 203.887 77.0327 203.657 77.1349 203.385L78.7429 203.674C78.6141 204.148 78.383 204.563 78.0497 204.919C77.7202 205.271 77.3054 205.546 76.8054 205.743C76.3092 205.936 75.7429 206.032 75.1065 206.032ZM83.2756 206.049C82.7225 206.049 82.2225 205.947 81.7756 205.743C81.3286 205.534 80.9744 205.233 80.7131 204.839C80.4555 204.445 80.3267 203.962 80.3267 203.39C80.3267 202.898 80.4214 202.493 80.6108 202.174C80.8002 201.856 81.0559 201.604 81.3778 201.419C81.6998 201.233 82.0597 201.093 82.4574 200.998C82.8551 200.904 83.2604 200.832 83.6733 200.782C84.196 200.722 84.6203 200.672 84.946 200.635C85.2718 200.593 85.5085 200.527 85.6562 200.436C85.804 200.345 85.8778 200.197 85.8778 199.993V199.953C85.8778 199.457 85.7377 199.072 85.4574 198.799C85.1809 198.527 84.768 198.39 84.2188 198.39C83.6468 198.39 83.196 198.517 82.8665 198.771C82.5407 199.021 82.3153 199.299 82.1903 199.606L80.5938 199.243C80.7831 198.712 81.0597 198.284 81.4233 197.958C81.7907 197.629 82.2131 197.39 82.6903 197.243C83.1676 197.091 83.6695 197.015 84.196 197.015C84.5445 197.015 84.9138 197.057 85.304 197.14C85.6979 197.22 86.0653 197.368 86.4062 197.583C86.7509 197.799 87.0331 198.108 87.2528 198.51C87.4725 198.907 87.5824 199.424 87.5824 200.061V205.856H85.9233V204.663H85.8551C85.7453 204.883 85.5805 205.099 85.3608 205.311C85.1411 205.523 84.8589 205.699 84.5142 205.839C84.1695 205.979 83.7566 206.049 83.2756 206.049ZM83.6449 204.686C84.1146 204.686 84.5161 204.593 84.8494 204.407C85.1866 204.222 85.4422 203.979 85.6165 203.68C85.7945 203.377 85.8835 203.053 85.8835 202.708V201.583C85.8229 201.644 85.7055 201.701 85.5312 201.754C85.3608 201.803 85.1657 201.847 84.946 201.885C84.7263 201.919 84.5123 201.951 84.304 201.981C84.0956 202.008 83.9214 202.03 83.7812 202.049C83.4517 202.091 83.1506 202.161 82.8778 202.26C82.6089 202.358 82.393 202.5 82.2301 202.686C82.071 202.868 81.9915 203.11 81.9915 203.413C81.9915 203.833 82.1468 204.152 82.4574 204.368C82.768 204.58 83.1638 204.686 83.6449 204.686ZM93.1122 206.027C92.4077 206.027 91.7789 205.847 91.2259 205.487C90.6766 205.123 90.2448 204.606 89.9304 203.936C89.6198 203.262 89.4645 202.453 89.4645 201.51C89.4645 200.566 89.6217 199.76 89.9361 199.089C90.2543 198.419 90.6899 197.905 91.2429 197.549C91.7959 197.193 92.4228 197.015 93.1236 197.015C93.6652 197.015 94.1009 197.106 94.4304 197.288C94.7637 197.466 95.0213 197.674 95.2031 197.913C95.3887 198.152 95.5327 198.362 95.6349 198.544H95.7372V194.22H97.4361V205.856H95.777V204.498H95.6349C95.5327 204.684 95.3849 204.896 95.1918 205.135C95.0024 205.373 94.741 205.582 94.4077 205.76C94.0743 205.938 93.6425 206.027 93.1122 206.027ZM93.4872 204.578C93.9759 204.578 94.3887 204.449 94.7259 204.191C95.0668 203.93 95.3243 203.568 95.4986 203.106C95.6766 202.644 95.7656 202.106 95.7656 201.493C95.7656 200.887 95.6785 200.356 95.5043 199.902C95.33 199.447 95.0743 199.093 94.7372 198.839C94.4001 198.585 93.9834 198.458 93.4872 198.458C92.9759 198.458 92.5497 198.591 92.2088 198.856C91.8679 199.121 91.6103 199.483 91.4361 199.941C91.2656 200.4 91.1804 200.917 91.1804 201.493C91.1804 202.076 91.2675 202.601 91.4418 203.066C91.616 203.532 91.8736 203.902 92.2145 204.174C92.5592 204.443 92.9834 204.578 93.4872 204.578ZM104.232 205.856V194.22H108.379C109.281 194.22 110.029 194.375 110.624 194.686C111.222 194.996 111.669 195.426 111.964 195.976C112.26 196.521 112.408 197.152 112.408 197.868C112.408 198.58 112.258 199.207 111.959 199.748C111.663 200.286 111.216 200.705 110.618 201.004C110.023 201.303 109.275 201.453 108.374 201.453H105.232V199.941H108.214C108.783 199.941 109.245 199.86 109.601 199.697C109.961 199.534 110.224 199.297 110.391 198.987C110.557 198.676 110.641 198.303 110.641 197.868C110.641 197.428 110.555 197.047 110.385 196.726C110.218 196.404 109.955 196.157 109.595 195.987C109.239 195.813 108.771 195.726 108.192 195.726H105.987V205.856H104.232ZM109.976 200.606L112.851 205.856H110.851L108.033 200.606H109.976ZM118.06 206.032C117.2 206.032 116.459 205.849 115.838 205.481C115.221 205.11 114.743 204.589 114.406 203.919C114.073 203.244 113.906 202.455 113.906 201.549C113.906 200.655 114.073 199.868 114.406 199.186C114.743 198.504 115.213 197.972 115.815 197.589C116.421 197.207 117.13 197.015 117.94 197.015C118.433 197.015 118.91 197.097 119.372 197.26C119.834 197.422 120.249 197.678 120.616 198.027C120.984 198.375 121.274 198.828 121.486 199.385C121.698 199.938 121.804 200.61 121.804 201.402V202.004H114.866V200.731H120.139C120.139 200.284 120.048 199.888 119.866 199.544C119.685 199.195 119.429 198.921 119.099 198.72C118.774 198.519 118.391 198.419 117.952 198.419C117.474 198.419 117.058 198.536 116.702 198.771C116.349 199.002 116.077 199.305 115.884 199.68C115.694 200.051 115.599 200.455 115.599 200.89V201.885C115.599 202.468 115.702 202.964 115.906 203.373C116.115 203.782 116.404 204.095 116.776 204.311C117.147 204.523 117.58 204.629 118.077 204.629C118.399 204.629 118.692 204.583 118.957 204.493C119.223 204.398 119.452 204.258 119.645 204.072C119.838 203.887 119.986 203.657 120.088 203.385L121.696 203.674C121.567 204.148 121.336 204.563 121.003 204.919C120.673 205.271 120.259 205.546 119.759 205.743C119.262 205.936 118.696 206.032 118.06 206.032ZM130.905 197.129L127.74 205.856H125.922L122.751 197.129H124.575L126.786 203.845H126.876L129.081 197.129H130.905ZM132.501 205.856V197.129H134.2V205.856H132.501ZM133.359 195.782C133.064 195.782 132.81 195.684 132.598 195.487C132.39 195.286 132.286 195.047 132.286 194.771C132.286 194.491 132.39 194.252 132.598 194.055C132.81 193.854 133.064 193.754 133.359 193.754C133.655 193.754 133.907 193.854 134.115 194.055C134.327 194.252 134.433 194.491 134.433 194.771C134.433 195.047 134.327 195.286 134.115 195.487C133.907 195.684 133.655 195.782 133.359 195.782ZM140.247 206.032C139.387 206.032 138.647 205.849 138.026 205.481C137.408 205.11 136.931 204.589 136.594 203.919C136.26 203.244 136.094 202.455 136.094 201.549C136.094 200.655 136.26 199.868 136.594 199.186C136.931 198.504 137.401 197.972 138.003 197.589C138.609 197.207 139.317 197.015 140.128 197.015C140.62 197.015 141.098 197.097 141.56 197.26C142.022 197.422 142.437 197.678 142.804 198.027C143.171 198.375 143.461 198.828 143.673 199.385C143.885 199.938 143.991 200.61 143.991 201.402V202.004H137.054V200.731H142.327C142.327 200.284 142.236 199.888 142.054 199.544C141.872 199.195 141.616 198.921 141.287 198.72C140.961 198.519 140.579 198.419 140.139 198.419C139.662 198.419 139.245 198.536 138.889 198.771C138.537 199.002 138.264 199.305 138.071 199.68C137.882 200.051 137.787 200.455 137.787 200.89V201.885C137.787 202.468 137.889 202.964 138.094 203.373C138.302 203.782 138.592 204.095 138.963 204.311C139.334 204.523 139.768 204.629 140.264 204.629C140.586 204.629 140.88 204.583 141.145 204.493C141.41 204.398 141.639 204.258 141.832 204.072C142.026 203.887 142.173 203.657 142.276 203.385L143.884 203.674C143.755 204.148 143.524 204.563 143.19 204.919C142.861 205.271 142.446 205.546 141.946 205.743C141.45 205.936 140.884 206.032 140.247 206.032ZM147.753 205.856L145.185 197.129H146.94L148.651 203.538H148.736L150.452 197.129H152.207L153.912 203.51H153.997L155.696 197.129H157.452L154.889 205.856H153.156L151.384 199.555H151.253L149.48 205.856H147.753ZM165.604 199.26L164.064 199.532C164 199.335 163.897 199.148 163.757 198.97C163.621 198.792 163.435 198.646 163.2 198.532C162.965 198.419 162.672 198.362 162.32 198.362C161.839 198.362 161.437 198.47 161.115 198.686C160.793 198.898 160.632 199.172 160.632 199.51C160.632 199.801 160.74 200.036 160.956 200.214C161.172 200.392 161.52 200.538 162.001 200.652L163.388 200.97C164.191 201.155 164.789 201.441 165.183 201.828C165.577 202.214 165.774 202.716 165.774 203.333C165.774 203.856 165.623 204.322 165.32 204.731C165.02 205.137 164.602 205.455 164.064 205.686C163.53 205.917 162.911 206.032 162.206 206.032C161.229 206.032 160.431 205.824 159.814 205.407C159.196 204.987 158.818 204.39 158.678 203.618L160.32 203.368C160.422 203.796 160.632 204.119 160.95 204.339C161.268 204.555 161.683 204.663 162.195 204.663C162.751 204.663 163.196 204.547 163.53 204.316C163.863 204.082 164.03 203.796 164.03 203.458C164.03 203.186 163.928 202.957 163.723 202.771C163.522 202.585 163.214 202.445 162.797 202.351L161.32 202.027C160.505 201.841 159.903 201.546 159.513 201.14C159.126 200.735 158.933 200.222 158.933 199.601C158.933 199.085 159.077 198.635 159.365 198.248C159.653 197.862 160.051 197.561 160.558 197.345C161.066 197.125 161.647 197.015 162.303 197.015C163.246 197.015 163.988 197.22 164.53 197.629C165.071 198.034 165.429 198.578 165.604 199.26Z" fill="#0064B2"/>
<path d="M60 209.038H166.496V210.129H60V209.038Z" fill="#0064B2"/>
</g>
<defs>
<filter id="filter0_d_2022_383" x="0" y="0.856201" width="363" height="269" filterUnits="userSpaceOnUse" color-interpolation-filters="sRGB">
<feFlood flood-opacity="0" result="BackgroundImageFix"/>
<feColorMatrix in="SourceAlpha" type="matrix" values="0 0 0 0 0 0 0 0 0 0 0 0 0 0 0 0 0 0 127 0" result="hardAlpha"/>
<feMorphology radius="12" operator="erode" in="SourceAlpha" result="effect1_dropShadow_2022_383"/>
<feOffset/>
<feGaussianBlur stdDeviation="24"/>
<feComposite in2="hardAlpha" operator="out"/>
<feColorMatrix type="matrix" values="0 0 0 0 0.203922 0 0 0 0 0.2 0 0 0 0 0.188235 0 0 0 0.15 0"/>
<feBlend mode="normal" in2="BackgroundImageFix" result="effect1_dropShadow_2022_383"/>
<feBlend mode="normal" in="SourceGraphic" in2="effect1_dropShadow_2022_383" result="shape"/>
</filter>
<linearGradient id="paint0_linear_2022_383" x1="262" y1="127.842" x2="298" y2="127.842" gradientUnits="userSpaceOnUse">
<stop offset="0.496567" stop-color="#FFC857"/>
<stop offset="0.496667" stop-color="#FFC857" stop-opacity="0"/>
</linearGradient>
</defs>
</svg>
